<svg width="116" height="116" viewBox="0 0 116 116" fill="none" xmlns="http://www.w3.org/2000/svg">
<g opacity="0.1">
<path d="M69.0588 36.3131C68.6908 34.0716 68.5091 32.0172 67.9531 30.3354C67.398 28.2802 68.5229 26.4158 68.7146 24.3624L69.089 23.9899C69.4624 23.9908 69.8349 24.3651 69.834 24.7385C70.3909 26.0469 70.7607 27.5416 71.3176 28.8499C72.4306 31.8401 73.9161 35.2047 72.6004 38.7491C76.9017 35.9589 82.1298 35.9717 86.6137 34.8624C87.1743 34.677 87.5468 35.0514 87.3596 35.2376C86.7963 36.5433 87.7285 37.1057 87.9129 38.0397C88.4662 40.8418 87.5303 41.7731 84.731 41.2061C82.305 40.64 79.502 41.5667 76.8853 42.6806L77.0715 42.8678C83.6061 43.0705 87.7047 46.8149 91.9886 51.1199C97.0176 56.1735 98.3095 62.3384 99.0408 68.6885C99.4042 72.7972 97.9013 76.5278 95.8388 80.0704C92.6495 86.2242 87.783 91.0669 81.9852 94.9738C80.1153 96.0895 78.4308 97.7658 76.5609 98.8815C72.4476 101.112 68.3362 102.596 63.8532 103.332C59.5574 103.881 55.6387 102.938 51.9098 100.688C49.4857 99.3754 46.8735 98.6221 45.011 96.7504C42.775 94.8777 41.2876 92.26 39.6131 89.8286C38.3102 88.145 37.3808 86.4623 36.6394 84.2198C36.2687 83.0986 35.71 82.5371 34.2171 82.16C31.0453 81.2187 28.2496 79.1579 25.6401 77.2844C25.0813 76.7229 24.3354 76.3476 23.7766 75.7861C21.9122 74.6612 20.6093 72.9776 19.6808 70.9214C17.8228 67.1825 16.7116 63.4455 17.2814 59.5258C17.8493 56.353 17.2951 53.9243 16.1821 50.9342C14.6976 47.1962 15.2682 42.9031 16.2114 38.9844C16.7775 36.5584 18.6501 34.3224 20.3356 32.2727C25.9535 25.5646 33.246 21.288 42.2111 20.1897C47.8144 19.4565 52.8525 20.7759 57.7007 23.4018C61.2432 25.4644 64.2234 28.4591 66.0814 32.198C67.1989 33.3211 67.5687 34.8157 69.0588 36.3131ZM78.5286 57.8087C78.5277 58.1821 78.1534 58.5546 78.5268 58.5556C78.9003 58.5565 79.2746 58.184 79.0893 57.6234C81.5252 54.0817 78.7405 47.5398 74.4474 46.9691C74.074 46.9682 73.8878 46.781 73.5134 47.1536C73.3253 47.7132 73.6987 47.7142 74.2584 47.9023C76.3082 49.5877 78.1708 51.4595 78.3497 54.6341C78.1607 55.5672 78.158 56.6875 78.5286 57.8087ZM18.6071 51.8737C21.2422 43.2912 31.5331 34.5407 35.2665 34.9233C33.77 36.0399 32.4607 36.9703 31.3386 37.7144C25.9133 41.9956 22.1653 47.5879 20.4679 54.4923C19.9009 57.2916 19.3348 59.7176 19.7009 62.7059C20.4286 70.5498 25.6456 75.0438 31.237 79.1653C34.4052 81.6003 38.3249 82.1701 42.2473 81.6195C43.741 81.6232 45.4219 81.4406 46.7285 81.6305C47.1019 81.6314 47.4753 81.6324 47.4735 82.3792C47.4726 82.7526 47.2854 82.9389 46.912 82.938C45.6036 83.4949 44.4824 83.8656 42.9896 83.4885C41.683 83.2986 40.1893 83.2949 38.8827 83.105C39.2534 84.2262 39.8113 85.1612 40.3692 86.0961C41.1087 89.0854 42.9704 91.3306 45.3926 93.3904C48.9334 96.1998 52.6622 98.4496 56.9525 100.141C60.6832 101.643 64.79 102.027 68.3408 100.729C73.7606 98.688 78.4363 95.5252 81.9953 90.866C85.5543 86.2068 88.5537 81.3596 89.8758 75.2011C91.1969 69.4162 90.2766 63.9991 88.0489 58.7656C87.3057 57.27 86.189 55.7736 84.5109 54.8359C84.3209 56.1424 85.4394 56.892 84.6907 57.6371C84.1283 58.5693 84.1265 59.3161 84.1246 60.063C84.1237 60.4364 84.3091 60.997 83.7475 61.5558C83.5604 61.7421 83.0007 61.554 82.8144 61.3668C82.4419 60.9925 82.4428 60.619 82.6309 60.0593C83.1943 58.7537 82.0831 55.0167 80.9646 54.267C81.1427 57.8151 78.336 60.2355 77.3946 63.4074C77.2065 63.9671 76.8331 63.9662 76.4597 63.9653C75.9 63.7772 76.0881 63.2175 76.089 62.8441C76.4661 61.3513 76.8432 59.8584 76.8478 57.9913C76.856 54.6304 76.3036 51.4549 73.1345 49.3932C72.762 49.0189 72.5757 48.8317 72.0151 49.0171C70.1479 49.0125 68.6561 48.262 68.2872 46.3939C68.1037 45.0864 67.3596 43.9643 66.8026 42.6559C65.8732 40.9732 64.5694 39.663 63.4527 38.1665C62.3361 36.67 60.4717 35.5452 58.043 36.0994C57.4824 36.2847 56.9227 36.0966 56.3621 36.282C55.9887 36.2811 55.6152 36.2801 55.6162 35.9067C55.6171 35.5333 55.8042 35.347 55.9914 35.1608C56.552 34.9754 57.4861 34.791 58.7935 34.6075C56.9309 32.7357 55.0656 31.9843 52.8269 31.232C50.7744 30.6668 48.3475 30.4741 45.9198 30.6549C46.8556 29.7236 47.6034 29.352 48.5374 29.1676C53.581 28.2463 58.2448 29.9382 62.3452 32.9357C63.4637 33.6853 64.3968 33.8743 65.5171 33.8771C64.7739 32.3815 64.0307 30.886 63.1003 29.5767C57.1437 22.0934 47.8125 20.2034 39.7778 22.611C33.4249 24.4626 28.0024 27.6235 23.3221 32.6534C19.7649 36.5657 17.7006 40.8552 17.3143 46.0823C17.1235 47.7623 16.7446 50.0019 18.6071 51.8737ZM82.9257 92.1753C84.046 92.1781 84.234 91.6184 84.6084 91.2459C87.416 88.452 89.8501 85.6572 92.099 82.3018C96.9709 75.2185 99.0427 67.9417 95.1413 59.9033C93.8411 57.0993 92.9154 53.9229 90.6803 51.6768C89.9352 50.9281 89.5636 50.1803 88.4442 49.8042C89.0012 51.1125 89.7453 52.2347 90.3022 53.5431C90.6748 53.9174 90.6738 54.2908 90.2995 54.6633C90.1123 54.8496 89.7389 54.8487 89.5526 54.6615C88.8067 54.2863 88.0607 53.911 87.5011 53.7229C94.9358 67.5582 93.9707 80.4392 82.9257 92.1753ZM85.676 36.5405C82.1289 36.3451 78.9515 37.6443 75.775 38.5701C73.5326 39.3115 72.4077 41.1759 70.9095 43.0394C70.7214 43.5991 71.093 44.3469 71.4655 44.7212C72.0243 45.2827 72.2133 44.3496 72.5876 43.9771C73.5244 42.6724 74.8337 41.742 76.3283 41.3722C79.5048 40.4464 82.4959 38.96 86.2265 40.4629C85.2961 39.1536 85.1126 37.8461 85.676 36.5405ZM88.2507 52.6044C86.9496 50.1739 85.8357 47.5572 83.2254 46.0571C80.9884 44.5578 78.9359 43.9927 76.3192 45.1065C80.7958 46.9847 84.3356 50.1675 88.2507 52.6044ZM69.6404 27.5388C69.2569 31.6456 70.1809 35.569 71.2911 39.6794C73.3564 35.0166 71.125 31.2768 69.6404 27.5388ZM63.6472 34.9928C66.0704 36.6792 68.1183 39.1115 69.4185 41.9155C70.3589 39.117 67.5669 35.5626 63.6472 34.9928ZM86.7945 37.2901C86.2311 38.5958 86.4164 39.1564 87.3477 40.0922C87.3505 38.9719 87.1651 38.4113 86.7945 37.2901ZM76.1375 43.0522C76.3247 42.866 76.5109 43.0531 76.5109 43.0531C76.5109 43.0531 76.6981 42.8669 76.5118 42.6797L76.1384 42.6788C76.3247 42.866 76.1375 43.0522 76.1375 43.0522Z" fill="#020202"/>
</g>
</svg>
