<svg width="49" height="49" viewBox="0 0 49 49" fill="none" xmlns="http://www.w3.org/2000/svg">
<g filter="url(#filter0_d)">
<circle cx="24.5" cy="20.5" r="16.5" fill="#59AAF1"/>
<circle cx="24.5" cy="20.5" r="16.5" fill="url(#paint0_linear)"/>
<circle cx="24.5" cy="20.5" r="16.5" fill="url(#paint1_linear)"/>
</g>
<path d="M30.2653 15.8198C30.261 15.7628 30.2133 15.7188 30.1562 15.7188H28.7344C28.4323 15.7188 28.1875 15.4739 28.1875 15.1719C28.1875 13.4229 26.7645 12 25.0156 12C23.2667 12 21.8437 13.4229 21.8437 15.1719C21.8437 15.4739 21.5989 15.7188 21.2969 15.7188H19.875C19.8179 15.7188 19.7702 15.7628 19.7659 15.8198L19.0003 25.8823C18.998 25.9126 19.0084 25.9426 19.0292 25.9649C19.0499 25.9873 19.079 26 19.1094 26H30.9219C30.9523 26 30.9814 25.9873 31.002 25.965C31.0227 25.9427 31.0332 25.9127 31.0309 25.8824L30.2653 15.8198ZM22.7187 15.1719C22.7187 13.9054 23.749 12.875 25.0156 12.875C26.2822 12.875 27.3125 13.9054 27.3125 15.1719C27.3125 15.4739 27.0676 15.7188 26.7656 15.7188H23.2656C22.9636 15.7188 22.7187 15.4739 22.7187 15.1719ZM22.2812 18.7812C21.678 18.7812 21.1875 18.2906 21.1875 17.6875C21.1875 17.5941 21.1975 17.5028 21.2175 17.4151C21.3246 16.9459 21.8437 17.2063 21.8437 17.6875C21.8437 17.9288 22.0401 18.125 22.2812 18.125C22.5224 18.125 22.7187 17.9288 22.7187 17.6875C22.7187 17.2066 23.2369 16.9468 23.3447 17.4155C23.3649 17.5032 23.375 17.5945 23.375 17.6875C23.375 18.2906 22.8844 18.7812 22.2812 18.7812ZM27.75 18.7812C27.1468 18.7812 26.6562 18.2906 26.6562 17.6875C26.6562 17.5941 26.6662 17.5028 26.6863 17.4151C26.7933 16.9459 27.3125 17.2063 27.3125 17.6875C27.3125 17.9288 27.5088 18.125 27.75 18.125C27.9912 18.125 28.1875 17.9288 28.1875 17.6875C28.1875 17.2066 28.7056 16.9468 28.8135 17.4155C28.8336 17.5032 28.8437 17.5945 28.8437 17.6875C28.8437 18.2906 28.3532 18.7812 27.75 18.7812Z" fill="white"/>
<defs>
<filter id="filter0_d" x="0" y="0" width="49" height="49" filterUnits="userSpaceOnUse" color-interpolation-filters="sRGB">
<feFlood flood-opacity="0" result="BackgroundImageFix"/>
<feColorMatrix in="SourceAlpha" type="matrix" values="0 0 0 0 0 0 0 0 0 0 0 0 0 0 0 0 0 0 127 0"/>
<feOffset dy="4"/>
<feGaussianBlur stdDeviation="4"/>
<feColorMatrix type="matrix" values="0 0 0 0 0.804167 0 0 0 0 0.276633 0 0 0 0 0.160833 0 0 0 0.26 0"/>
<feBlend mode="normal" in2="BackgroundImageFix" result="effect1_dropShadow"/>
<feBlend mode="normal" in="SourceGraphic" in2="effect1_dropShadow" result="shape"/>
</filter>
<linearGradient id="paint0_linear" x1="24.5" y1="4" x2="24.5" y2="37" gradientUnits="userSpaceOnUse">
<stop stop-color="#FE5626"/>
<stop offset="1" stop-color="#F23F0E"/>
</linearGradient>
<linearGradient id="paint1_linear" x1="25.0683" y1="75.1986" x2="-8.20339" y2="64.5526" gradientUnits="userSpaceOnUse">
<stop stop-color="#F58656"/>
<stop offset="1" stop-color="#FE5626"/>
</linearGradient>
</defs>
</svg>
