<svg width="137" height="147" viewBox="0 0 137 147" fill="none" xmlns="http://www.w3.org/2000/svg">
<g opacity="0.1">
<path d="M103.932 91.5222C106.248 94.2636 104.46 96.6906 102.387 98.3265C100.44 99.6944 98.459 99.7349 96.461 99.1118L96.1934 98.9845C93.6942 99.434 92.4479 97.202 91.2186 95.6335C90.2568 94.1924 88.7769 93.1603 87.4223 91.8601C87.4223 91.8601 87.1548 91.7328 86.8872 91.6054C86.1016 91.8871 84.9061 91.646 84.2627 92.3231C84.6894 93.5096 85.509 94.5552 86.4538 95.3327C87.3986 96.1101 87.8254 97.2965 88.6449 98.3422C89.1969 99.2605 88.1945 101.406 87.033 102.492C85.1027 104.523 82.854 104.437 80.3378 104.222C79.4099 104.109 77.9639 104.404 77.1613 104.022C76.8937 103.895 76.3587 103.64 76.0911 103.513C74.5943 101.817 72.7046 100.262 71.4584 98.0299C71.1739 97.2389 70.6388 96.9842 70.0868 96.066C69.3926 94.7522 68.59 94.3702 67.5537 95.1882C66.5174 96.0062 65.4642 96.1606 64.2688 95.9194C65.6234 97.2197 66.7274 99.0563 68.082 100.357C69.4366 101.657 70.0056 103.239 70.4492 105.089C70.8759 106.275 70.1072 107.221 68.8034 107.911C65.9283 109.165 62.894 109.36 59.7343 109.823C58.2883 110.118 57.2012 108.945 55.9889 108.041C55.7213 107.913 55.044 107.263 54.2414 106.881C53.4388 106.499 53.029 105.976 52.7446 105.185C51.3561 102.558 49.0566 100.48 48.1862 97.4437C47.1669 98.9253 46.1137 99.0797 44.776 98.4431C44.241 98.1884 43.4384 97.8065 43.0625 98.6109C42.8119 99.1472 43.6145 99.5292 43.7567 99.9247C45.6633 102.143 47.4447 104.63 49.3513 106.849C49.7611 107.371 50.0286 107.499 50.4384 108.021C51.793 109.322 51.8438 111.313 50.5569 112.667C47.5904 115.516 43.7873 116.657 39.5406 115.947C38.6127 115.833 38.3283 115.042 37.7932 114.787C36.171 113.36 34.2814 111.805 32.6592 110.377C30.2344 108.568 29.2388 105.799 27.4575 103.313C26.9055 102.394 26.7463 101.335 26.1943 100.417C26.052 100.021 26.052 100.021 25.517 99.7667C22.7163 98.7617 20.9519 96.9386 19.4381 94.5792C17.6568 92.0925 15.3574 90.0148 13.1832 87.6689C11.2935 86.114 9.92197 84.1501 8.67572 81.9181C6.8944 79.4313 4.86247 77.481 3.47398 74.8534C2.22773 72.6213 1.24901 70.5166 0.395592 68.1437C-0.0311183 66.9573 -0.457828 65.7708 -1.00984 64.8525C-2.64892 62.7613 -3.62764 60.6566 -3.69539 58.002C-3.88845 55.6156 -5.26 53.6517 -6.75685 51.9559C-8.39594 49.8647 -10.4279 47.9143 -12.0669 45.8231C-12.619 44.9048 -13.5469 44.791 -14.0989 43.8727C-16.5575 40.7359 -16.5169 37.1495 -15.4231 33.4088C-15.0472 32.6043 -14.6713 31.7998 -14.5629 30.868C-14.4546 29.9362 -13.8111 29.259 -12.9002 28.7092C-11.1866 28.5413 -9.6322 27.3143 -7.79333 26.8783C-5.16879 26.1606 -2.63567 27.0384 0.0227423 27.648C2.68116 28.2576 5.48181 29.2626 7.90656 31.0722C9.11894 31.977 10.8495 32.4727 12.563 32.3049C14.937 32.1235 17.1687 31.5466 19.4173 31.6334C22.0588 31.5794 24.575 31.7935 27.2334 32.4031C29.3567 32.758 30.8536 34.4538 32.4757 35.8813C33.8303 37.1816 35.4186 37.2819 37.1491 37.7777C37.6842 38.0323 38.077 37.8915 38.1854 36.9597C38.1685 36.296 38.6866 35.887 39.3639 36.5372C39.6314 36.6645 39.6314 36.6645 39.899 36.7918C41.8631 36.0876 43.9865 36.4426 45.8253 36.0066C47.0039 35.584 48.074 36.0933 49.1441 36.6026C50.4818 37.2393 51.8195 37.8759 53.1572 38.5125C54.102 39.2899 55.0299 39.4037 55.8156 39.1221C57.1363 39.095 58.4571 39.068 59.6356 38.6455C62.6529 37.787 65.2944 37.7329 68.112 39.4016C69.9847 40.2929 72.1081 40.6479 74.0723 39.9437C77.0896 39.0851 79.6227 39.9629 81.5124 41.5178C84.2047 43.4547 86.7717 45.6597 88.8206 48.2737C90.1921 50.2376 91.9565 52.0607 93.9715 53.3475C96.1287 55.0297 97.7678 57.1209 99.4069 59.2121C101.866 62.349 104.324 65.4858 107.176 68.4818C107.585 69.0046 107.853 69.132 107.87 69.7956C108.74 72.8321 111.04 74.9098 113.214 77.2557C114.711 78.9515 115.547 80.6607 116.651 82.4973C116.793 82.8928 116.936 83.2883 117.203 83.4156C118.131 83.5294 117.881 84.0657 117.362 84.4747C117.237 84.7429 117.112 85.011 117.112 85.011C117.647 85.2657 117.897 84.7294 118.165 84.8567C118.558 84.7159 118.951 84.575 118.968 85.2387C119.11 85.6341 118.592 86.0431 118.324 85.9158C117.522 85.5338 117.538 86.1975 117.413 86.4657C115.859 87.6926 116.929 88.2019 117.748 89.2475C119.245 90.9433 120.742 92.639 122.114 94.6029C123.076 96.044 122.842 97.244 121.145 98.0755C119.181 98.7797 117.217 99.4839 115.236 99.5244C113.522 99.6923 111.917 98.9283 111.081 97.2191C110.244 95.5098 108.764 94.4777 107.535 92.9093C106.431 91.0727 105.361 90.5634 103.932 91.5222ZM55.6229 88.5269C54.8373 88.8085 54.4614 89.613 53.9433 90.022C54.7289 89.7403 55.3723 89.0632 55.6229 88.5269C55.8905 88.6542 56.0158 88.386 56.1411 88.1179C55.8736 87.9905 55.7482 88.2587 55.6229 88.5269ZM94.8251 81.616C93.7719 81.7703 93.2707 82.8429 92.3598 83.3928C93.1624 83.7747 93.4299 83.9021 93.8058 83.0976C94.0564 82.5613 94.5745 82.1523 94.8251 81.616C95.0927 81.7433 95.218 81.4751 94.8251 81.616C94.9504 81.3478 94.9504 81.3478 94.8251 81.616ZM113.007 84.6966C113.935 84.8104 114.22 85.6014 114.897 86.2515C115.039 86.647 115.574 86.9017 115.825 86.3654C116.343 85.9564 116.201 85.5609 115.54 85.5744C115.273 85.4471 115.005 85.3197 115.398 85.1789C116.292 83.9654 115.222 83.4561 115.205 82.7925C114.294 83.3423 113.509 83.624 113.007 84.6966C112.865 84.3011 112.865 84.3011 113.007 84.6966C112.74 84.5693 112.74 84.5693 113.007 84.6966ZM37.3326 112.274L37.6001 112.401C37.3326 112.274 37.4579 112.005 37.3326 112.274C38.9784 109.451 41.1932 108.211 44.2275 108.016C45.5482 107.989 46.7267 107.566 48.1897 107.935C46.5506 105.843 45.0368 103.484 43.0049 101.534C42.1854 100.488 41.3658 99.4424 40.7969 97.8605C40.2449 96.9422 37.5526 95.0053 36.7669 95.287C34.8027 95.9912 32.6794 95.6362 30.8405 96.0723C30.4477 96.2131 30.0549 96.3539 29.5367 96.7629C27.3558 99.3307 27.3558 99.3307 28.8866 102.354L29.0288 102.749C30.2581 104.318 30.7018 106.168 31.9311 107.736C33.8208 109.291 35.3176 110.987 37.3326 112.274ZM75.6877 46.2849C75.9552 46.4122 75.9552 46.4122 75.6877 46.2849C75.9383 45.7486 76.1889 45.2123 76.1719 44.5486C76.155 43.885 76.4056 43.3487 76.9407 43.6033C77.4757 43.858 77.3504 44.1261 77.0998 44.6624C76.8662 45.8624 76.7578 46.7942 76.5242 47.9942C76.2736 48.5305 76.8086 48.7851 77.2015 48.6443C77.469 48.7716 77.5943 48.5035 77.4521 48.108C77.5774 47.8398 77.5774 47.8398 77.7027 47.5717C77.9533 47.0353 77.5265 45.8489 78.5967 46.3582C79.3993 46.7402 78.6306 47.6855 78.5053 47.9536C77.8788 49.2944 78.1632 50.0854 79.3756 50.9902C79.6262 50.4539 79.484 50.0584 79.7346 49.5221C79.5923 49.1266 79.5754 48.4629 80.5033 48.5767C81.1637 48.5632 80.7878 49.3677 80.93 49.7632C80.5711 51.2313 80.0868 52.9676 81.9596 53.8589C82.2102 53.3225 82.3185 52.3907 82.3016 51.7271C82.4269 51.4589 82.4099 50.7953 82.945 51.0499C83.3378 50.9091 83.3548 51.5727 83.2295 51.8409C83.1042 52.1091 83.2464 52.5045 82.9958 53.0409C82.1187 54.918 82.2948 56.6408 83.5242 58.2092C83.7578 57.0092 84.1337 56.2047 84.3674 55.0048C84.618 54.4684 84.618 54.4684 85.0108 54.3276C85.6712 54.3141 85.8134 54.7096 85.5628 55.2459C85.0616 56.3185 85.363 57.7731 84.2015 58.8593C84.0762 59.1275 84.0762 59.1275 84.0762 59.1275C84.4859 59.6503 84.6451 60.7094 85.4477 61.0914C85.6069 62.1505 86.4095 62.5325 87.3544 63.3099C87.588 62.11 88.0892 61.0373 88.3229 59.8373C88.5735 59.301 88.6988 59.0329 88.9663 59.1602C89.6267 59.1467 89.3761 59.683 89.2508 59.9512C89.1424 60.883 89.034 61.8148 88.5329 62.8874C88.0317 63.96 88.1908 65.0192 89.1357 65.7966C89.1357 65.7966 89.0104 66.0648 89.4032 65.9239L89.5285 65.6558C89.9044 64.8513 90.1381 63.6513 90.514 62.8469C90.6393 62.5787 90.6223 61.9151 91.1574 62.1697C91.6925 62.4244 91.5672 62.6925 91.3166 63.2288C90.9407 64.0333 90.9576 64.697 90.5817 65.5014C90.3311 66.0378 90.0805 66.5741 90.0975 67.2377C90.9339 68.947 92.1632 70.5154 93.2673 72.352C93.3587 70.7565 93.7176 69.2884 94.3441 67.9476C94.4694 67.6794 94.4525 67.0158 94.9876 67.2705C95.5226 67.5251 95.3973 67.7933 95.1467 68.3296C94.7878 69.7977 94.5541 70.9977 93.9276 72.3385C93.5517 73.1429 93.5687 73.8066 93.9954 74.993C94.6049 72.9886 95.482 71.1115 96.2338 69.5025C96.3591 69.2344 96.0746 68.4434 96.6097 68.698C97.1448 68.9527 97.287 69.3482 97.0364 69.8845C96.2846 71.4934 95.8004 73.2297 95.0486 74.8387C94.1546 76.0522 94.8319 76.7023 95.3839 77.6206C95.5261 78.0161 95.7937 78.1434 96.1865 78.0026L96.4371 77.4662C96.9213 75.7299 97.2634 73.5982 97.7476 71.8619C97.9982 71.3256 98.3741 70.5211 98.6247 69.9848C98.75 69.7166 99.1428 69.5758 99.4104 69.7031C99.9454 69.9578 99.5526 70.0986 99.302 70.6349C99.0514 71.1712 98.9261 71.4394 98.6755 71.9757C98.066 73.9802 97.7239 76.1119 97.2397 77.8482C96.9891 78.3845 96.7385 78.9208 96.8807 79.3163C97.558 79.9665 97.7172 81.0256 98.5198 81.4076C99.3224 81.7895 99.4647 82.185 99.4816 82.8486C99.8744 82.7078 99.9997 82.4397 100.125 82.1715C100.752 80.8307 101.11 79.3626 101.737 78.0218C101.988 77.4855 102.238 76.9491 103.041 77.3311C103.576 77.5857 103.058 77.9947 102.807 78.5311L102.682 78.7992C101.93 80.4082 101.856 82.6673 100.301 83.8943C100.301 83.8943 99.9083 84.0351 100.176 84.1624C100.853 84.8125 100.352 85.8852 101.029 86.5353C101.707 87.1855 101.456 87.7218 100.545 88.2716C101.49 89.0491 102.401 88.4992 103.329 88.613C104.257 88.7268 104.775 88.3178 104.348 87.1314C104.223 87.3996 104.223 87.3996 104.223 87.3996C104.097 87.6677 103.579 88.0767 103.312 87.9494C103.044 87.8221 103.295 87.2857 103.42 87.0176C103.796 86.2131 104.565 85.2678 104.941 84.4633C105.066 84.1952 105.317 83.6588 105.852 83.9135C106.387 84.1681 106.404 84.8318 106.011 84.9726C105.886 85.2408 105.493 85.3816 105.902 85.9044C107.064 84.8183 108.226 83.7321 109.387 82.6459C109.905 82.237 110.423 81.828 110.833 82.3508C111.653 83.3964 112.029 82.5919 112.279 82.0556C112.797 81.6466 113.315 81.2376 113.976 81.2241C112.337 79.1328 110.572 77.3098 108.933 75.2185C107.579 73.9183 107.528 71.9274 106.173 70.6271C103.447 67.3629 100.721 64.0988 98.12 60.5665C96.4809 58.4752 94.5743 56.2567 92.2918 54.8426C90.8119 53.8105 89.4573 52.5103 88.3533 50.6737C87.659 49.3599 86.5719 48.187 85.2343 47.5503C84.4317 47.1684 83.6121 46.1228 82.9348 45.4726C80.3509 42.6039 76.7476 41.2169 73.229 43.1481C74.157 43.2619 74.0486 44.1937 74.7259 44.8438L74.8512 44.5757C75.1018 44.0393 75.3524 43.503 75.8875 43.7577C76.4225 44.0123 75.9044 44.4213 76.0466 44.8168C75.6538 44.9576 75.6707 45.6213 75.6877 46.2849ZM83.0062 84.5138C83.1654 85.5729 83.0571 86.5047 83.2162 87.5638L83.4838 87.6911C84.4862 85.5459 85.4885 83.4006 86.4909 81.2553C88.0961 82.0192 86.132 82.7234 86.684 83.6417C87.4696 83.36 87.8455 82.5556 88.3806 82.8102C88.9157 83.0649 89.041 82.7967 89.4338 82.6559C90.2025 81.7105 91.2388 80.8926 91.8823 80.2154C92.2751 80.0746 92.2581 79.4109 92.7932 79.6656C93.203 80.1884 92.6849 80.5974 92.5596 80.8655C91.9161 81.5427 91.0052 82.0925 90.2364 83.0378L90.1111 83.306L90.3787 83.4333C90.9137 83.688 91.1643 83.1516 91.2896 82.8835C92.0584 81.9382 92.9693 81.3883 93.6128 80.7112C94.1309 80.3022 94.9166 80.0205 95.0757 81.0796C94.9504 81.3478 95.218 81.4751 95.3433 81.207C95.4686 80.9388 95.8614 80.798 95.5939 80.6706C95.3263 80.5433 95.1841 80.1478 95.1841 80.1478C93.9717 79.2431 93.1522 78.1974 92.5832 76.6155C91.6045 74.5108 91.0186 72.2652 89.6471 70.3013C88.2755 68.3374 87.2968 66.2326 85.7999 64.5369C83.6258 62.191 82.112 59.8316 80.8488 56.9359C80.2799 55.354 79.3181 53.9129 78.231 52.74C76.0568 50.3941 74.1502 48.1755 72.887 45.2798C72.4434 43.4297 71.2141 41.8613 68.9654 41.7745C68.305 41.7881 67.8953 41.2653 67.3602 41.0106C66.2901 40.5013 65.0946 40.2602 64.0414 40.4145C61.7928 40.3277 59.7033 41.3001 57.4716 41.8769C60.2892 43.5457 61.9452 46.3005 63.6012 49.0554C63.818 47.1918 64.4445 45.851 65.3385 44.6375C65.4638 44.3694 65.7144 43.833 66.2495 44.0877C66.7845 44.3423 66.5339 44.8787 66.2833 45.415C65.7821 46.4876 65.2809 47.5603 64.7797 48.6329C63.8857 49.8464 64.1871 51.301 65.0067 52.3466C65.5587 53.2649 66.2529 54.5787 67.0725 55.6243C67.2147 56.0197 67.7667 56.938 68.2848 56.529C68.6777 56.3882 68.9283 55.8519 68.9113 55.1882C69.2872 54.3838 69.7884 53.3111 70.1643 52.5066C70.2896 52.2385 70.5402 51.7022 71.0753 51.9568C71.6104 52.2115 71.0922 52.6205 70.9669 52.8886C70.7163 53.4249 70.608 54.3567 70.3574 54.8931C69.8562 55.9657 69.355 57.0383 68.444 57.5882C68.8538 58.111 69.2636 58.6338 69.548 59.4247C69.9239 58.6203 69.907 57.9566 70.1576 57.4203C70.5335 56.6158 70.7672 55.4159 71.4106 54.7387C71.5359 54.4705 71.9287 54.3297 72.1962 54.457C72.4638 54.5844 72.3385 54.8525 72.2132 55.1207C71.5867 56.4615 70.9602 57.8023 70.3337 59.1431C70.0831 59.6794 69.8156 59.5521 69.1552 59.5656C69.8325 60.2157 69.9917 61.2748 70.7943 61.6568C71.6883 60.4433 71.6544 59.116 72.2809 57.7753C72.4062 57.5071 72.3893 56.8434 72.9244 57.0981C73.4594 57.3527 73.3341 57.6209 73.3511 58.2845C73.2427 59.2163 73.0091 60.4163 72.2403 61.3616C71.4716 62.3069 71.7561 63.0979 72.7009 63.8754C73.3274 62.5346 73.6864 61.0664 74.3129 59.7256C74.4382 59.4575 74.4212 58.7938 74.9563 59.0485C75.4914 59.3031 75.3661 59.5713 75.2408 59.8395C74.8649 60.6439 74.7565 61.5757 74.3806 62.3802C72.9684 64.0027 73.5374 65.5846 74.6245 66.7576C74.892 66.8849 74.7667 67.153 74.7667 67.153C75.3187 68.0713 75.6032 68.8623 76.6733 69.3716C77.3845 71.349 78.3632 73.4537 79.9854 74.8813C80.8049 75.9269 81.1978 75.7861 82.0918 74.5726C82.4677 73.7682 82.8436 72.9637 83.2195 72.1592C83.3448 71.891 83.8629 71.482 84.1305 71.6094C84.6655 71.864 84.4149 72.4003 84.2896 72.6685C83.7884 73.7411 83.2872 74.8138 82.3763 75.3636C80.9472 76.3224 81.3739 77.5089 81.9259 78.4272C82.3526 79.6136 82.5118 80.6727 82.7963 81.4637C82.8301 82.791 82.7218 83.7228 83.0062 84.5138ZM39.5841 45.1645C39.4588 45.4327 39.4588 45.4327 39.7263 45.56C41.4907 47.3831 42.3441 49.756 43.5904 51.988C44.8366 54.2201 45.6901 56.593 46.6688 58.6977C47.0955 59.8842 48.3079 60.789 48.7346 61.9754C49.7133 64.0802 50.5498 65.7894 51.9213 67.7533C52.3311 68.2761 52.7409 68.7989 53.1506 69.3217C54.8067 72.0766 56.588 74.5633 58.6369 77.1774C61.0955 80.3142 64.2145 83.4375 64.4584 87.8149C64.6006 88.2103 64.6175 88.874 65.2779 88.8605C65.9383 88.847 65.6877 89.3833 65.1695 89.7923C64.2586 90.3421 63.3645 91.5556 62.4536 92.1054C61.5426 92.6553 62.4875 93.4327 62.2369 93.969C62.1116 94.2372 62.7889 94.8873 63.1817 94.7465C64.77 94.8468 66.3582 94.9471 67.6451 93.5928C66.023 92.1652 66.023 92.1652 64.4686 93.3922C64.3433 93.6603 64.0757 93.533 63.9504 93.8012C63.5576 93.942 63.4323 94.2102 62.8972 93.9555C62.4875 93.4327 62.8803 93.2919 63.2731 93.151C64.4516 92.7285 64.4008 90.7376 65.8468 90.4424C65.9552 89.5106 66.3311 88.7061 66.9745 88.029C67.0998 87.7608 67.2251 87.4927 66.9576 87.3653C66.4225 87.1107 66.5478 86.8425 66.6731 86.5744C67.1743 85.5017 67.6755 84.4291 68.1767 83.3564C68.302 83.0883 68.2851 82.4246 68.8201 82.6793C69.3552 82.9339 69.1046 83.4703 68.9793 83.7384C68.6034 84.5429 68.2275 85.3474 67.9939 86.5473C68.9048 85.9975 69.423 85.5885 70.0664 84.9114C70.4592 84.7705 70.5845 84.5024 71.1196 84.757C71.5294 85.2798 71.6547 85.0116 72.0475 84.8708C72.5656 84.4618 73.2091 83.7847 73.9947 83.503C74.3876 83.3621 74.9057 82.9532 75.0479 83.3486C75.7252 83.9988 76.2434 83.5898 76.7615 83.1808C77.1543 83.0399 77.5472 82.8991 77.6894 83.2946C77.8316 83.6901 77.4388 83.8309 77.3135 84.0991C76.4025 84.6489 75.4916 85.1987 74.8481 85.8759C75.3832 86.1305 75.9013 85.7215 76.0266 85.4534C76.9376 84.9035 77.581 84.2264 78.6173 83.4084C79.0101 83.2676 79.2608 82.7312 79.7958 82.9859C80.3309 83.2405 79.5452 83.5222 79.6875 83.9177C80.0803 83.7768 80.5984 83.3679 80.9913 83.227C81.3841 83.0862 81.5094 82.818 81.3672 82.4225C81.0657 80.9679 80.6221 79.1178 80.3207 77.6632C79.5519 78.6085 78.8916 78.6221 79.1422 78.0857C79.5011 76.6176 78.2888 75.7128 77.7367 74.7945C75.5118 70.4577 73.0362 66.6573 70.2931 62.7295C68.9046 60.1019 67.1233 57.6152 65.342 55.1285C63.8282 52.7691 62.565 49.8734 61.0512 47.514C58.5756 43.7135 55.5989 40.9857 51.5858 39.0758C49.178 37.9299 46.8041 38.1113 44.1626 38.1654C43.1094 38.3197 42.3237 38.6014 41.3958 38.4876C40.0751 38.5146 39.0049 38.0053 37.8434 39.0914C37.7181 39.3596 37.183 39.105 36.5226 39.1185C36.1298 39.2593 35.3272 38.8773 34.5246 38.4954C35.3441 39.541 35.6286 40.332 36.3059 40.9821C37.2677 42.4232 38.2295 43.8643 39.5841 45.1645ZM15.6245 38.3509C15.4992 38.6191 15.4992 38.6191 15.6245 38.3509C15.7667 38.7464 15.892 38.4783 15.6245 38.3509C16.0004 37.5465 16.3763 36.742 16.7522 35.9375C16.8775 35.6693 17.2534 34.8649 17.7884 35.1195C18.3235 35.3742 18.0729 35.9105 17.8223 36.4468C17.3211 37.5194 16.9622 38.9876 16.7285 40.1875C17.1044 39.383 17.355 38.8467 17.7309 38.0422C17.8562 37.7741 18.249 37.6332 18.5166 37.7606C18.7841 37.8879 18.6588 38.156 18.5335 38.4242C18.1576 39.2287 18.1745 39.8923 17.7986 40.6968C17.1721 42.0376 17.1721 42.0376 18.5098 42.6742C18.6012 41.0788 18.9602 39.6107 19.8542 38.3972C19.9795 38.129 20.1048 37.8609 20.3724 37.9882C20.6399 38.1155 20.7821 38.511 20.6568 38.7792C20.4062 39.3155 20.0303 40.12 20.0473 40.7836C19.9389 41.7154 19.4377 42.788 19.5969 43.8472C19.7222 43.579 19.8475 43.3108 19.9728 43.0427C20.2234 42.5064 19.922 41.0518 20.8499 41.1656C21.6525 41.5475 20.8838 42.4928 20.7754 43.4247C20.667 44.3565 20.3995 44.2291 21.3444 45.0066C21.3105 43.6793 22.3467 42.8613 22.5804 41.6613C22.831 41.125 22.6888 40.7295 23.2238 40.9842C23.7589 41.2388 23.9011 41.6343 23.6505 42.1706C23.1493 43.2433 22.7734 44.0478 22.5398 45.2477C22.1639 46.0522 21.788 46.8567 22.7328 47.6341C22.7328 47.6341 22.7328 47.6341 22.8751 48.0296L23.0004 47.7615C23.3763 46.957 23.3593 46.2933 23.7352 45.4889C23.8605 45.2207 23.9858 44.9525 24.5209 45.2072C25.056 45.4618 24.6631 45.6027 24.8054 45.9981C24.4295 46.8026 24.4464 47.4663 24.0705 48.2707C23.6946 49.0752 23.8369 49.4707 24.2466 49.9935C24.6225 49.189 24.4634 48.1299 25.2321 47.1846C25.3574 46.9164 25.608 46.3801 26.143 46.6348C26.6781 46.8894 26.4275 47.4257 26.3022 47.6939C25.801 48.7665 25.8349 50.0938 25.3337 51.1665C25.0831 51.7028 25.1 52.3664 25.9027 52.7484C26.2785 51.9439 26.3869 51.0121 26.7628 50.2076C26.8881 49.9395 27.0134 49.6713 27.4062 49.5305C28.0666 49.517 27.816 50.0533 27.9582 50.4488C27.5824 51.2532 27.5993 51.9169 27.2234 52.7214C26.7222 53.794 26.4885 54.994 27.7009 55.8987C28.2021 54.8261 28.3105 53.8943 28.8117 52.8217C28.937 52.5535 29.0623 52.2853 29.5973 52.54C29.8649 52.6673 30.0071 53.0628 29.8818 53.3309C29.6312 53.8673 29.2553 54.6718 29.2723 55.3354C28.9133 56.8035 28.6796 58.0035 29.3739 59.3173L29.6414 59.4446L29.7667 59.1764C30.0004 57.9765 30.1087 57.0446 30.6099 55.972C30.7352 55.7039 30.593 55.3084 30.9858 55.1675C31.6462 55.154 31.7884 55.5495 31.5378 56.0858C31.4295 57.0176 31.0536 57.8221 31.0705 58.4857C31.2297 59.5449 30.0681 60.631 31.1552 61.804C31.0299 62.0721 31.2974 62.1994 31.565 62.3268C31.9578 62.1859 31.6903 62.0586 31.548 61.6631C31.5142 60.3358 31.6056 58.7404 32.2321 57.3996C32.4827 56.8633 32.7333 56.327 33.5359 56.7089C34.0709 56.9636 33.5528 57.3726 33.3022 57.9089C32.5504 59.5178 32.3337 61.3815 32.7774 63.2315C33.1533 62.4271 33.4038 61.8907 33.5122 60.9589C33.6375 60.6908 33.8881 60.1545 34.4232 60.4091C34.9582 60.6638 34.5654 60.8046 34.7076 61.2001C34.457 61.7364 34.5993 62.1319 34.3487 62.6682C33.9897 64.1363 32.9704 65.618 33.9322 67.0591C33.9322 67.0591 33.8069 67.3272 34.0744 67.4545L34.1997 67.1864C34.4334 65.9864 34.667 64.7865 34.9007 63.5865C35.026 63.3183 35.2766 62.782 35.937 62.7685C36.5973 62.755 35.9539 63.4321 36.2214 63.5595C36.5059 64.3504 36.13 65.1549 35.7541 65.9594C35.6458 66.8912 35.1446 67.9638 35.6966 68.8821C35.8219 68.614 36.0725 68.0776 36.1978 67.8095C36.0555 67.414 36.1808 67.1458 36.4484 67.2732C36.7159 67.4005 36.9834 67.5278 37.1257 67.9233C37.2679 68.3188 37.1426 68.5869 37.0173 68.8551C36.7836 70.0551 36.1572 71.3959 36.7261 72.9778C36.7261 72.9778 36.7261 72.9778 36.6008 73.2459C36.6008 73.2459 36.6008 73.2459 36.7261 72.9778C36.7261 72.9778 36.7261 72.9778 36.4586 72.8505C36.9767 72.4415 36.8345 72.046 36.9598 71.7778C37.0681 70.846 37.1765 69.9142 37.8199 69.2371C37.9452 68.9689 37.9283 68.3053 38.4633 68.5599C38.9984 68.8146 38.8731 69.0827 38.8901 69.7464C38.6564 70.9463 38.565 72.5418 38.3313 73.7417C38.223 74.6735 38.2399 75.3372 38.6497 75.86C39.1678 75.451 38.758 74.9282 38.8833 74.66C39.0086 74.3919 39.1339 74.1237 39.4015 74.251C39.669 74.3783 39.5437 74.6465 39.6859 75.042C39.5776 75.9738 39.3439 77.1738 39.2355 78.1056C39.0019 79.3055 39.2864 80.0965 40.2312 80.8739C40.3226 79.2785 39.2186 77.4419 40.8983 75.9468C41.0236 75.6786 41.0067 75.015 41.8093 75.3969C42.3443 75.6516 42.0937 76.1879 41.9684 76.4561C41.0744 77.6695 41.2336 78.7287 41.2675 80.0559C41.4266 81.1151 41.5858 82.1742 41.0846 83.2468C40.9593 83.515 41.1016 83.9105 41.3691 84.0378C41.8703 82.9652 41.9787 82.0334 42.2123 80.8334C42.3376 80.5652 42.1954 80.1698 42.5882 80.0289C42.8557 80.1562 43.1233 80.2836 43.2655 80.679C43.1572 81.6109 43.4416 82.4018 43.3333 83.3336C42.7068 84.6744 42.7406 86.0017 43.4349 87.3155C43.5771 87.711 42.6662 88.2608 43.7363 88.7701C44.3628 87.4293 44.9893 86.0885 45.3483 84.6204C45.5988 84.0841 45.8494 83.5477 46.3845 83.8024C47.0449 83.7889 46.4015 84.466 46.5437 84.8615C46.4692 87.1206 44.8064 89.2794 45.9274 91.7796C45.9274 91.7796 45.8021 92.0478 45.6768 92.3159C45.5515 92.5841 45.284 92.4568 45.0164 92.3294C44.6067 91.8066 43.8041 91.4247 43.3943 90.9019C42.3241 90.3926 41.5046 89.3469 41.2032 87.8923C40.4751 85.2513 39.3541 82.7511 38.1079 80.519C36.3096 77.3686 35.0295 73.8093 33.3565 70.3908C32.1102 68.1587 31.5074 65.2495 29.8683 63.1583C28.7813 61.9853 28.2123 60.4034 27.5181 59.0896C25.31 55.4165 23.6201 51.3343 21.0193 47.802C20.6095 47.2792 20.1997 46.7564 19.9322 46.6291C18.7198 45.7243 17.5074 44.8195 16.8132 43.5057C15.4247 40.8782 13.3758 38.2642 11.5945 35.7774C10.3483 33.5454 9.27812 33.0361 8.20798 32.5268C5.24815 30.4626 2.17996 29.3302 -1.40636 28.6068C-3.79724 28.1245 -6.18812 27.6423 -8.79572 29.0236C-9.70668 29.5734 -10.4924 29.8551 -11.4033 30.4049C-13.3675 31.1091 -13.7434 31.9136 -13.8179 34.1727C-13.2997 33.7637 -13.3167 33.1001 -12.7985 32.6911C-12.9408 32.2956 -12.4226 31.8866 -12.2804 32.2821C-12.1382 32.6775 -12.2635 32.9457 -12.3888 33.2139C-13.2828 34.4273 -13.9093 35.7681 -14.5358 37.1089C-15.1623 38.4497 -14.8609 39.9043 -14.5595 41.359C-14.0583 40.2863 -14.0752 39.6227 -13.9668 38.6909C-13.7671 36.1636 -12.4802 34.8093 -10.533 33.4415C-10.1401 33.3006 -10.0148 33.0325 -9.60506 33.5553C-9.19528 34.0781 -9.58812 34.2189 -9.98095 34.3598C-11.0172 35.1778 -10.9833 36.5051 -11.6098 37.8459C-11.7351 38.114 -11.7182 38.7777 -11.8435 39.0458C-12.5783 41.3184 -12.6528 43.5775 -10.8884 45.4006C-10.8884 45.4006 -10.7462 45.7961 -10.6209 45.5279C-10.6209 45.5279 -10.6209 45.5279 -10.7631 45.1324C-11.0646 43.6778 -10.9731 42.0824 -10.6142 40.6142C-10.2552 39.1461 -10.0385 37.2825 -8.6094 36.3237C-8.21657 36.1828 -7.96597 35.6465 -7.5562 36.1693C-7.41396 36.5648 -7.53926 36.833 -7.93209 36.9738C-9.84545 39.6689 -10.1705 42.4643 -9.30017 45.5009C-9.141 46.56 -9.40853 46.4327 -10.3364 46.3189C-9.53383 46.7008 -9.51689 47.3645 -8.71429 47.7464C-8.73123 47.0828 -8.87346 46.6873 -8.62287 46.151C-8.53144 44.5556 -8.44002 42.9601 -7.27846 41.874C-7.15316 41.6058 -6.77726 40.8013 -6.36749 41.3241C-5.83242 41.5788 -6.35055 41.9878 -6.60115 42.5241C-7.47824 44.4012 -7.69496 46.2648 -7.37661 48.3831C-6.62482 46.7741 -6.14056 45.0378 -5.65631 43.3015C-5.53101 43.0334 -5.28041 42.4971 -5.01288 42.6244C-4.4778 42.879 -4.7284 43.4153 -4.8537 43.6835C-5.33796 45.4198 -5.82222 47.1561 -6.30647 48.8924C-6.54013 50.0923 -6.64849 51.0241 -5.31081 51.6607C-5.7714 49.147 -5.03655 46.8744 -4.56923 44.4745C-4.33557 43.2745 -3.5499 42.9928 -2.63893 42.443C-2.2461 42.3022 -1.85327 42.1613 -1.71103 42.5568C-1.56879 42.9523 -1.69409 43.2205 -2.08693 43.3613C-2.60506 43.7703 -2.99789 43.9111 -2.98095 44.5748C-4.3423 48.1882 -4.91798 51.5199 -3.10278 55.3339C-2.85218 54.7976 -2.72688 54.5294 -2.60159 54.2613C-2.00897 51.5932 -0.471508 49.7025 1.60102 48.0666C1.99386 47.9257 2.11916 47.6576 2.65423 47.9122C2.79646 48.3077 2.67116 48.5758 2.27833 48.7167C2.02773 49.253 1.6349 49.3938 1.11676 49.8028C-0.562931 51.298 -1.44002 53.1751 -1.78204 55.3069C-1.8904 56.2387 -2.141 56.775 -2.24936 57.7068C-2.62526 58.5113 -2.48302 58.9068 -1.80571 59.5569C-1.68041 59.2887 -1.68041 59.2887 -1.55511 59.0206C-1.19615 57.5524 -0.444365 55.9435 0.182129 54.6027C0.432727 54.0664 0.825561 53.9255 1.0931 54.0529C1.62817 54.3075 1.37757 54.8438 1.25227 55.112C1.00167 55.6483 0.751076 56.1846 0.50048 56.7209C-0.251312 58.3299 -0.877807 59.6707 -0.826993 61.6616C-0.701695 61.3935 -0.701694 61.3935 -0.576395 61.1253C-0.126013 58.0617 2.33935 56.2849 4.00211 54.1261C4.12741 53.858 4.64554 53.449 4.78778 53.8445C5.32285 54.0991 4.80471 54.5081 4.67941 54.7763C4.17822 55.8489 3.40949 56.7942 2.37323 57.6122C0.0501004 59.7845 0.26009 62.8346 0.202543 65.7573C0.578438 64.9528 0.686798 64.021 0.937396 63.4847C1.42165 61.7484 2.44098 60.2668 3.19277 58.6578C3.44337 58.1215 3.9615 57.7125 4.49657 57.9671C5.29918 58.3491 4.38821 58.899 4.26291 59.1671C2.47485 61.5941 1.75694 64.5303 1.03902 67.4666C0.913725 67.7347 0.663127 68.271 1.0729 68.7938C1.44879 67.9894 1.55716 67.0576 1.66552 66.1258C1.9906 63.3303 3.38582 61.0442 4.92328 59.1536C5.44141 58.7446 5.81731 57.9401 6.22708 58.4629C6.90439 59.1131 5.99342 59.6629 5.74283 60.1992C4.20536 62.0898 3.20297 64.2351 2.73566 66.635C2.502 67.835 3.07095 69.4169 1.37431 70.2484L1.51655 70.6439C1.80102 71.4349 2.08549 72.2259 2.6375 73.1442C2.7628 72.876 2.7628 72.876 2.8881 72.6078C2.82034 69.9533 4.21557 67.6671 5.34326 65.2537C5.59385 64.7174 6.11199 64.3084 6.50482 64.1676C6.63012 63.8994 7.02296 63.7586 7.16519 64.154C7.43273 64.2814 7.30743 64.5495 7.18213 64.8177C6.5387 65.4948 6.2881 66.0312 5.9122 66.8356C4.90982 68.9809 4.03272 70.858 3.6907 72.9898C3.70764 73.6535 3.45704 74.1898 3.74152 74.9807C5.13001 77.6083 7.55476 79.4178 8.94326 82.0454C9.35303 82.5682 9.36996 83.2318 10.1726 83.6138C10.2809 82.682 10.3893 81.7502 10.3724 81.0866C10.1962 79.3638 10.6805 77.6275 11.4323 76.0185C11.6829 75.4822 11.8082 75.2141 12.3433 75.4687C12.8783 75.7234 12.3602 76.1323 12.5024 76.5278C11.8929 78.5323 11.6762 80.3959 11.4594 82.2595C11.4764 82.9231 11.9031 84.1096 10.7246 84.5321C10.3317 84.6729 10.5993 84.8003 10.5993 84.8003C11.5611 86.2413 12.5228 87.6824 14.128 88.4464C13.7928 85.6645 14.5276 83.3919 15.6553 80.9784C15.7806 80.7103 16.0312 80.174 16.5663 80.4286C16.8338 80.5559 16.976 80.9514 16.7254 81.4877C16.4748 82.0241 16.2243 82.5604 15.9737 83.0967C15.0966 84.9738 15.0221 87.2329 15.3404 89.3512C15.4996 90.4103 16.9626 90.7787 17.5146 91.697C17.7821 91.8244 17.7821 91.8243 17.9244 92.2198C17.9244 92.2198 17.7991 92.488 18.1919 92.3472L18.3172 92.079C17.8566 89.5653 18.1986 87.4335 19.3263 85.0201C19.5769 84.4837 19.4177 83.4246 20.2203 83.8066C20.7554 84.0612 20.3795 84.8657 20.1289 85.402C19.3941 87.6746 18.9267 90.0746 19.3873 92.5883C19.5296 92.9838 19.0114 93.3928 19.4212 93.9156C20.7928 95.8795 22.4319 97.9707 24.5721 98.9893C25.1072 99.2439 25.5 99.1031 25.7506 98.5668C26.77 97.0852 28.0568 95.7308 29.3437 94.3765C30.1124 93.4312 31.0234 92.8814 32.0597 92.0634C32.4525 91.9226 32.8453 91.7817 32.9876 92.1772C33.3973 92.7 32.737 92.7135 32.6117 92.9817C31.826 93.2633 31.1826 93.9405 30.4138 94.8858C31.3417 94.9996 32.1274 94.718 32.6455 94.309C33.8071 93.2228 35.1109 92.5321 36.1472 91.7141C36.54 91.5733 37.0581 91.1643 37.2004 91.5598C37.3426 91.9553 37.3426 91.9553 37.7354 91.8144C38.1283 91.6736 38.3789 91.1373 38.9139 91.3919C39.3068 91.2511 39.5743 91.3784 39.7165 91.7739C39.8588 92.1694 39.4659 92.3102 39.0731 92.4511C38.1452 92.3372 37.7693 93.1417 37.2512 93.5507C37.1259 93.8189 36.4655 93.8324 36.8753 94.3552C37.1428 94.4825 37.8201 95.1327 38.0707 94.5963C38.196 94.3282 38.4466 93.7919 38.8394 93.651C39.4829 92.9739 39.8588 92.1694 40.6445 91.8877C41.1626 91.4787 41.4301 91.606 41.8399 92.1288C41.9821 92.5243 42.1244 92.9198 41.7315 93.0607C40.1433 92.9604 39.659 94.6966 38.6227 95.5146C39.6929 96.0239 40.6377 96.8014 41.315 97.4515C41.7248 97.9743 42.1176 97.8335 42.3852 97.9608C43.9734 98.0611 43.9734 98.0611 45.3856 96.4386C44.8505 96.184 44.5999 96.7203 44.0818 97.1293C43.689 97.2701 43.4384 97.8065 43.2961 97.411C42.8864 96.8882 43.2792 96.7473 43.672 96.6065C44.1902 96.1975 44.8336 95.5203 44.5491 94.7294C44.5491 94.7294 44.6744 94.4612 44.7997 94.193C45.7107 93.6432 45.819 92.7114 46.4625 92.0343C47.2312 91.0889 47.9999 90.1436 49.0362 89.3256C49.429 89.1848 49.9472 88.7758 50.3569 89.2986C50.7667 89.8214 50.3739 89.9622 49.8557 90.3712C49.3207 90.1166 48.5519 91.0619 47.8002 92.6709C48.5858 92.3892 49.2462 92.3757 49.6221 91.5712C50.1233 90.4986 50.892 89.5532 51.9283 88.7353C52.4464 88.3263 53.0729 86.9855 54.16 88.1584C54.16 88.1584 54.5528 88.0176 54.6781 87.7494C55.0709 87.6086 55.3215 87.0722 55.7144 86.9314C56.1072 86.7906 56.3578 86.2543 56.7676 86.7771C57.3026 87.0317 56.7845 87.4407 56.6592 87.7089C56.3917 87.5815 56.2664 87.8497 56.1411 88.1179C56.2833 88.5133 56.5339 87.977 56.5339 87.977C56.9268 87.8362 57.4449 87.4272 57.8377 87.2863C58.2306 87.1455 58.7487 86.7365 58.8909 87.132C59.3007 87.6548 58.515 87.9365 58.1222 88.0773C57.2112 88.6272 56.175 89.4451 55.5315 90.1223C56.8692 90.7589 56.6017 90.6316 57.6379 89.8136C58.6742 88.9956 59.8358 87.9095 60.872 87.0915C61.2649 86.9506 61.783 86.5416 61.9252 86.9371C62.335 87.4599 61.5493 87.7416 61.1565 87.8824C59.8527 88.5731 58.8164 89.3911 58.0477 90.3364C58.3152 90.4637 58.5828 90.5911 58.7081 90.3229C60.0119 89.6322 61.0312 88.1506 62.2097 87.7281L62.335 87.4599C61.9083 86.2735 62.142 85.0735 61.3224 84.0279C58.5624 79.4364 54.7661 75.663 52.006 71.0715C50.4922 68.7122 48.4603 66.7618 47.7322 64.1207C47.4477 63.3297 47.1632 62.5388 46.4859 61.8886C45.2566 60.3202 44.4201 58.611 43.5837 56.9017C42.7302 54.5288 41.6262 52.6922 40.38 50.4602C38.5817 47.3098 36.6581 44.4276 34.467 41.4181C32.2759 38.4086 29.692 35.5399 25.9635 34.421C22.8953 33.2886 19.4681 33.6244 16.2916 33.4238C14.8455 33.7189 14.3274 34.1279 14.5205 36.5144C14.4121 37.4462 15.2147 37.8281 15.6245 38.3509ZM68.9863 104.72C68.4342 103.802 68.2751 102.743 67.5978 102.093C65.8334 100.27 64.1943 98.1785 62.4299 96.3554C60.9331 94.6597 59.829 92.8231 57.1706 92.2135C55.3148 91.9859 53.8518 91.6174 52.2805 92.1808C50.7092 92.7441 49.4223 94.0985 47.7087 94.2663C48.5283 95.3119 49.3478 96.3575 49.6323 97.1485C50.6279 99.9169 52.6599 101.867 54.0484 104.495C54.3328 105.286 55.1354 105.668 55.6705 105.922C56.2056 106.177 56.3139 105.245 56.7068 105.104C59.4227 102.791 62.0473 102.074 65.383 103.333C66.4531 103.843 67.398 104.62 68.9863 104.72ZM67.5943 91.6018C68.3969 91.9838 69.0742 92.6339 69.8768 93.0159C72.034 94.6981 73.155 97.1984 74.6688 99.5577C74.811 99.9532 74.9533 100.349 75.4714 99.9397C78.5971 98.1494 81.7229 96.359 85.702 96.9416C85.2922 96.4188 84.7572 96.1642 84.6149 95.7687C82.9758 93.6774 82.1224 91.3045 79.9652 89.6223C77.3982 87.4173 73.5613 87.2302 70.5609 88.7524C69.2571 89.443 68.6306 90.7838 67.5943 91.6018ZM103.214 94.4585C102.929 93.6675 102.519 93.1447 102.11 92.6219C100.88 91.0535 99.7932 89.8806 98.4386 88.5803C97.3515 87.4074 96.0138 86.7708 94.6762 86.1341C92.5359 85.1155 90.2872 85.0288 87.9472 86.5374C86.5181 87.4963 86.3014 89.3599 87.656 90.6601C89.5457 92.215 91.4353 93.7699 92.8069 95.7338C93.3589 96.6521 94.0193 96.6386 94.9302 96.0888C97.6462 93.7756 100.254 92.3943 103.214 94.4585ZM120.668 94.8981C120.258 94.3753 120.116 93.9798 119.581 93.7252C118.903 93.0751 118.226 92.4249 117.799 91.2385C117.373 90.052 116.804 88.4701 115.073 87.9743C114.806 87.847 114.538 87.7197 114.396 87.3242C112.364 85.3738 108.652 84.9186 106.312 86.4272C106.187 86.6954 105.919 86.568 106.062 86.9635C106.062 86.9635 106.079 87.6272 106.329 87.0909C106.454 86.8227 106.705 86.2864 106.597 87.2182C106.614 87.8818 106.631 88.5455 107.04 89.0683C107.735 90.382 108.947 91.2868 110.034 92.4598C110.711 93.1099 111.246 93.3645 112.157 92.8147C112.676 92.4057 113.603 92.5195 114.138 92.7742C116.279 93.7928 118.277 94.4159 120.668 94.8981ZM48.5081 110.053C46.2425 109.302 44.1361 109.611 41.9044 110.188C40.8512 110.342 39.8149 111.16 39.3137 112.233C38.5619 113.842 38.9717 114.365 40.4347 114.733C43.7535 115.329 46.2358 114.216 48.8264 112.171C50.3808 110.944 50.1133 110.817 48.5081 110.053ZM76.4332 101.381C76.8599 102.567 77.6625 102.949 78.7157 102.795C80.304 102.895 81.6247 102.868 82.9454 102.841C84.659 102.673 85.8206 101.587 86.8399 100.105C87.2158 99.301 86.9483 99.1737 86.4132 98.919C83.4703 97.5185 80.7374 99.168 78.2551 100.281C77.4694 100.563 77.3611 101.495 76.4332 101.381ZM68.1092 106.597C66.7715 105.961 65.9689 105.579 65.1663 105.197C62.7585 104.051 60.3845 104.232 58.1867 106.137C57.7939 106.277 57.2757 106.686 57.6855 107.209C57.8277 107.605 58.2375 108.127 58.8979 108.114C61.8069 108.187 64.699 107.597 68.1092 106.597ZM96.1426 96.9936C97.6225 98.0257 100.389 97.7034 101.944 96.4765C102.462 96.0675 102.32 95.672 101.91 95.1492C100.037 94.2579 97.0197 95.1164 96.1426 96.9936ZM81.2757 84.018C80.2395 84.836 79.596 85.5131 78.5598 86.3311C79.2371 86.9813 80.0397 87.3632 80.4495 87.886C81.1268 88.5362 81.5196 88.3953 81.628 87.4635C81.7363 86.5317 81.5771 85.4726 81.2757 84.018ZM117.525 96.0248C116.187 95.3882 114.724 95.0197 113.404 95.0468C113.011 95.1876 112.476 94.933 112.493 95.5966C112.367 95.8648 112.777 96.3876 113.045 96.5149C113.58 96.7695 114.115 97.0242 114.9 96.7425C115.419 96.3335 116.472 96.1792 117.525 96.0248ZM60.188 91.355C61.9354 92.5144 62.4197 90.7781 63.3307 90.2283C63.7235 90.0875 63.5813 89.692 63.439 89.2965C63.2968 88.901 62.904 89.0418 62.7787 89.31C61.8677 89.8598 61.099 90.8052 60.188 91.355ZM82.6067 89.5683C83.4601 91.9412 84.73 89.9232 85.6579 90.037C84.8384 88.9914 83.4093 89.9502 82.6067 89.5683ZM94.6084 83.4796C95.2688 83.466 95.428 84.5252 95.8039 83.7207C96.0545 83.1844 96.5726 82.7754 96.6979 82.5072C96.8232 82.2391 97.216 82.0982 96.9485 81.9709C96.8062 81.5754 96.4134 81.7163 96.2881 81.9844C95.6447 82.6616 95.1265 83.0706 94.6084 83.4796ZM96.0883 84.5117C96.3559 84.639 96.6234 84.7663 96.8909 84.8936C97.426 85.1483 97.6766 84.612 97.9272 84.0756C98.0525 83.8075 97.9103 83.412 97.6427 83.2847C97.1077 83.03 96.9824 83.2982 96.8571 83.5663C96.9993 83.9618 96.6065 84.1027 96.0883 84.5117ZM79.1693 84.3267C78.5259 85.0038 77.6149 85.5537 76.9715 86.2308L77.239 86.3581C77.8825 85.681 78.7934 85.1312 79.1693 84.3267ZM34.7519 94.0003C36.0727 93.9732 36.4486 93.1688 36.8245 92.3643C36.181 93.0414 35.6629 93.4504 34.7519 94.0003ZM37.3426 91.9553C37.3426 91.9553 37.2173 92.2234 37.3426 91.9553C37.2173 92.2234 37.2173 92.2234 37.2173 92.2234C37.2173 92.2234 37.2173 92.2234 37.3426 91.9553C37.4848 92.3508 37.2173 92.2234 37.3426 91.9553ZM77.7365 48.8989C77.7365 48.8989 77.6112 49.1671 77.7365 48.8989C77.6112 49.1671 77.6112 49.1671 77.7365 48.8989C77.6112 49.1671 77.7365 48.8989 77.7365 48.8989ZM-6.84154 48.6377C-6.84154 48.6377 -7.23438 48.7785 -6.84154 48.6377C-7.23438 48.7785 -6.96684 48.9059 -6.84154 48.6377C-6.96684 48.9059 -6.96684 48.9059 -6.84154 48.6377C-6.96684 48.9059 -6.96684 48.9059 -6.84154 48.6377ZM11.3511 83.1913C11.3511 83.1913 11.2088 82.7958 11.3511 83.1913C11.2088 82.7958 11.0835 83.064 11.3511 83.1913C11.0835 83.064 11.0835 83.064 11.3511 83.1913Z" fill="#040404"/>
<path d="M81.0823 84.2075C81.2421 85.2629 81.6706 86.4451 81.4355 87.6406C81.3263 88.5689 80.9315 88.7091 80.2509 88.0612C79.5704 87.4132 79.0327 87.1593 78.3522 86.5113C79.2678 85.9638 80.0407 85.0222 81.0823 84.2075Z" fill="#040404"/>
<path d="M112.651 84.7716C113.297 84.0965 114.085 83.8158 114.731 83.1406C115.016 83.9296 116.09 84.4378 115.05 85.2533C114.924 85.5207 115.192 85.6478 115.192 85.6478C115.855 85.6345 115.998 86.029 115.478 86.4367C114.958 86.8445 114.689 86.7174 114.547 86.3229C114.136 85.8014 113.725 85.2799 112.651 84.7716C112.919 84.8987 112.651 84.7716 112.651 84.7716Z" fill="#040404"/>
<path d="M59.9367 91.3545C60.8535 90.8073 61.6273 89.8662 62.5441 89.319C62.6702 89.052 63.0656 88.9119 63.2086 89.3057C63.3516 89.6996 63.6208 89.8265 63.0993 90.2336C62.1825 90.7808 61.6948 92.5095 59.9367 91.3545Z" fill="#040404"/>
<path d="M82.3509 89.7553C83.5469 89.9964 84.7092 88.9109 85.4037 90.224C84.4753 90.1102 83.2046 92.127 82.3509 89.7553Z" fill="#040404"/>
<path d="M94.4293 83.8006C94.9515 83.3939 95.5999 82.7205 96.122 82.3138C96.2483 82.0471 96.6442 81.9072 96.7876 82.3008C97.0572 82.4276 96.931 82.6944 96.5351 82.8343C96.2826 83.3678 95.7604 83.7745 95.6342 84.0413C95.2555 84.8415 94.699 83.9275 94.4293 83.8006Z" fill="#040404"/>
<path d="M94.9383 82.0586C94.6858 82.5921 94.1636 82.9987 94.0373 83.2655C93.6585 84.0657 93.1191 83.812 92.5798 83.5584C93.2282 82.885 93.607 82.0847 94.9383 82.0586C94.6686 81.9317 94.9383 82.0586 94.9383 82.0586Z" fill="#040404"/>
<path d="M95.8929 84.8373C96.2875 84.6972 96.4133 84.43 96.8079 84.2899C97.2024 84.1498 97.1853 83.4884 97.597 84.0097C97.8657 84.1368 98.0086 84.531 97.8828 84.7982C97.757 85.0653 97.5053 85.5997 96.842 85.6127C96.6991 85.2185 96.4304 85.0914 95.8929 84.8373Z" fill="#040404"/>
<path d="M78.9954 84.4978C78.4889 85.5637 77.6946 85.8434 77.0442 86.5163L76.7736 86.3896C77.5506 85.4503 78.0744 85.044 78.9954 84.4978Z" fill="#040404"/>
<path d="M34.4893 93.7679C35.4093 93.2216 35.9325 92.8152 36.5822 92.1422C36.2027 92.9419 35.8233 93.7416 34.4893 93.7679Z" fill="#040404"/>
<path d="M55.4145 88.4828C55.0346 89.2822 54.5107 89.6885 53.7161 89.9682C54.3667 89.2954 54.7466 88.496 55.4145 88.4828Z" fill="#040404"/>
<path d="M31.453 61.4537C31.3275 61.7208 31.8649 61.9754 31.4707 62.1151C31.4707 62.1151 31.202 61.9878 31.0588 61.5934C31.3275 61.7208 31.3275 61.7208 31.453 61.4537Z" fill="#040404"/>
<path d="M55.4166 88.4903C55.2725 88.0968 55.5427 88.2239 55.6689 87.9574C55.813 88.3509 55.813 88.3509 55.4166 88.4903Z" fill="#040404"/>
<path d="M56.4609 87.6827C56.4609 87.6827 56.2083 88.2159 56.0651 87.8226C56.1914 87.5561 56.1914 87.556 56.4609 87.6827C56.5872 87.4161 56.4609 87.6827 56.4609 87.6827Z" fill="#040404"/>
<path d="M37.1025 91.748C36.9762 92.014 37.2489 92.1417 37.1025 91.748C36.9762 92.014 36.9761 92.014 36.9761 92.014C36.9761 92.014 36.9762 92.014 37.1025 91.748C36.9762 92.014 37.1025 91.748 37.1025 91.748Z" fill="#040404"/>
<path d="M16.3906 38.4039C16.3906 38.4039 16.2646 38.6717 16.3906 38.4039C15.9969 38.5451 15.9969 38.5451 16.3906 38.4039C16.123 38.2773 16.123 38.2773 16.3906 38.4039Z" fill="#040404"/>
<path d="M23.6353 47.8214L23.5089 48.0874C23.5089 48.0874 23.2362 47.9598 23.6353 47.8214C23.3626 47.6938 23.6353 47.8214 23.6353 47.8214Z" fill="#040404"/>
<path d="M34.0292 66.9659L33.9023 67.2335C33.508 67.3756 33.6349 67.108 34.0292 66.9659C33.6349 67.108 34.0292 66.9659 34.0292 66.9659Z" fill="#040404"/>
<path d="M94.672 81.9413C94.7981 81.6735 94.7981 81.6735 94.672 81.9413C95.0658 81.8001 94.9397 82.0679 94.672 81.9413C94.9397 82.0679 94.672 81.9413 94.672 81.9413Z" fill="#040404"/>
<path d="M76.419 46.5178L76.2924 46.786C76.0254 46.6602 76.0254 46.6602 76.419 46.5178C76.0254 46.6602 76.0254 46.6602 76.419 46.5178Z" fill="#040404"/>
<path d="M29.7078 58.9685C29.8494 59.363 29.8494 59.363 29.7078 58.9685C29.8494 59.363 29.5818 59.2364 29.7078 58.9685C29.5818 59.2364 29.5818 59.2364 29.7078 58.9685Z" fill="#040404"/>
<path d="M112.798 85.1514C112.53 85.0248 112.53 85.0248 112.798 85.1514C112.656 84.7569 112.656 84.7569 112.798 85.1514C112.656 84.7569 112.924 84.8836 112.798 85.1514Z" fill="#040404"/>
<path d="M11.258 82.8219C10.9891 82.694 10.9891 82.694 11.258 82.8219C10.9891 82.694 11.1137 82.4274 11.258 82.8219C11.1137 82.4274 11.258 82.8219 11.258 82.8219Z" fill="#040404"/>
<path d="M89.4559 65.6319L89.329 65.8995C88.9347 66.0416 89.0616 65.774 89.4559 65.6319C89.0616 65.774 89.0616 65.774 89.4559 65.6319Z" fill="#040404"/>
<path d="M18.8756 90.7802C18.8756 90.7802 18.7495 91.048 18.8756 90.7802C18.4819 90.9214 18.4819 90.9214 18.8756 90.7802C18.608 90.6536 18.608 90.6536 18.8756 90.7802Z" fill="#040404"/>
<path d="M90.3352 83.4437C90.3352 83.4437 90.2106 83.7102 90.3352 83.4437C90.0663 83.3158 90.0663 83.3158 90.3352 83.4437Z" fill="#040404"/>
<path d="M21.6546 90.4925C22.0172 89.0325 23.0463 87.5593 23.4088 86.0993C23.5354 85.8327 23.5183 85.1727 24.0584 85.426C24.5986 85.6793 24.472 85.9459 24.3455 86.2126C23.966 87.0126 23.983 87.6725 23.6035 88.4725C22.8444 90.0724 22.7519 91.659 22.9295 93.3722C23.073 93.7655 23.3601 94.5521 22.6935 94.5654C21.9004 94.8455 22.2799 94.0455 22.1364 93.6522C21.9758 92.599 21.9417 91.2791 20.8615 90.7725C20.5914 90.6459 20.4479 90.2526 20.3043 89.8593C19.7302 88.2861 21.3749 84.8196 22.8176 83.8662C23.2142 83.7262 23.3407 83.4595 23.8808 83.7128C24.0244 84.1061 23.8979 84.3728 23.7714 84.6394C22.2191 86.5194 21.7301 88.246 21.6546 90.4925Z" fill="#040404"/>
<path d="M14.1567 75.4033C14.6651 74.3381 15.1734 73.273 16.0978 72.7266C16.4964 72.5866 17.0222 72.1803 17.1666 72.5729C17.5827 73.0917 17.184 73.2317 16.9298 73.7643C14.9887 76.4409 14.2609 79.3563 14.0762 82.5243C14.2207 82.9168 14.2381 83.5756 13.5679 83.5894C12.8977 83.6032 12.6087 82.8181 12.8629 82.2855C13.065 79.7764 13.14 77.5336 14.1567 75.4033Z" fill="#040404"/>
<path d="M9.50852 72.1632C10.5256 70.0331 11.9763 69.0805 12.8836 67.8755C13.0108 67.6092 13.2824 67.7354 13.5541 67.8617C13.8258 67.9879 13.9703 68.3804 13.8432 68.6467C13.4618 69.4454 12.9358 69.8517 12.5544 70.6505C10.8669 72.7944 9.99434 75.317 10.064 77.952C9.93682 78.2183 10.0814 78.6108 9.80969 78.4846C9.41088 78.6246 9.13921 78.4983 8.99467 78.1058C8.57847 77.5871 8.6882 76.6621 8.94247 76.1296C8.76312 74.4196 9.39879 73.0882 9.50852 72.1632Z" fill="#040404"/>
<path d="M11.1311 62.7432C11.5491 63.2611 11.4216 63.5272 10.8937 63.9334C9.45536 65.5439 8.56259 67.4063 7.54228 69.5349C7.03212 70.5991 6.79475 71.7893 6.55737 72.9795C6.42983 73.2456 6.57508 73.6376 5.90197 73.6518C5.62919 73.5258 5.48395 73.1338 5.61149 72.8677C6.05083 69.1711 7.43606 65.5863 10.3304 63.0234C10.458 62.7573 10.8583 62.6172 11.1311 62.7432Z" fill="#040404"/>
<path d="M8.68646 69.7891C9.06837 68.9905 9.05084 68.3321 9.97703 67.7858C10.3765 67.6457 10.5038 67.3796 10.6486 67.7719C10.9207 67.898 10.7934 68.1642 10.6661 68.4303C9.12095 70.9659 8.24734 73.4876 7.91801 76.2616C7.7907 76.5277 7.93553 76.92 7.26396 76.934C6.99182 76.8078 6.71968 76.6817 6.84699 76.4156C6.68463 75.3648 6.79441 74.4401 7.17633 73.6416C7.81285 72.3107 8.04993 71.1199 8.68646 69.7891Z" fill="#040404"/>
<path d="M29.4591 91.9588C28.8076 92.6317 28.5712 93.8238 27.6489 94.3703C27.1243 94.7767 26.7266 94.9167 26.7438 95.576C26.6169 95.8424 26.4901 96.1089 26.0923 96.2489C25.8215 96.1224 25.6774 95.7296 25.8042 95.4631C26.0407 94.271 26.4213 93.4717 26.6577 92.2795C26.9114 91.7466 27.0383 91.4802 27.2919 90.9473C27.4188 90.6809 27.4188 90.6809 27.5456 90.4145C27.9434 90.2745 28.0874 90.6673 27.9606 90.9338C27.9778 91.5931 28.3755 91.4531 28.6292 90.9202C28.756 90.6538 28.7388 89.9945 29.2806 90.2473C29.9664 90.8931 29.9836 91.5524 29.4591 91.9588Z" fill="#040404"/>
<path d="M18.4579 80.7587C18.8569 80.6186 18.9667 79.6938 19.4929 79.2875C19.8919 79.1475 20.0191 78.8812 20.1638 79.2736C20.4356 79.3998 20.3084 79.6661 20.1812 79.9323C18.8918 81.9359 17.8742 84.0657 18.0712 86.4341C17.944 86.7003 17.8168 86.9666 17.8168 86.9666C17.4178 87.1066 17.2731 86.7142 17.4003 86.448C16.9664 85.2707 17.3305 83.8134 17.5675 82.6223C17.8219 82.0898 18.0763 81.5573 18.4579 80.7587Z" fill="#040404"/>
<path d="M27.2937 88.2925C26.5311 89.8902 25.2252 91.2354 25.2773 93.2118C25.1502 93.478 25.1502 93.478 24.7515 93.6181C24.4799 93.4918 24.2083 93.3656 24.3354 93.0993C24.029 91.6554 24.393 90.1978 25.173 89.2589C25.4272 88.7264 26.0802 88.0538 26.606 87.6475C26.7331 87.3812 27.259 86.9749 27.8022 87.2274C28.3454 87.4799 27.8196 87.8862 27.6925 88.1525C27.4208 88.0263 27.2937 88.2925 27.2937 88.2925Z" fill="#040404"/>
<path d="M41.3795 95.1394C41.1093 95.0128 40.9656 94.6196 41.0922 94.353C41.8688 93.4132 42.9157 92.6 43.6923 91.6602C43.8189 91.3936 44.0892 91.5202 44.3594 91.6468C44.6297 91.7733 44.5031 92.0399 44.3765 92.3065C43.5999 93.2464 42.8232 94.1862 41.903 94.7328C41.6498 95.266 41.3795 95.1394 41.3795 95.1394Z" fill="#040404"/>
<path d="M61.8154 63.0574C61.8508 64.3736 61.3406 65.4378 60.958 66.236C60.338 68.2244 59.4452 70.0868 58.5524 71.9492C58.4249 72.2153 58.1698 72.7474 57.6242 72.4955C57.0787 72.2435 57.6065 71.8374 57.4613 71.4454C58.2088 69.1909 59.2291 67.0625 59.9767 64.808C60.3593 64.0099 60.8872 63.6037 61.8154 63.0574Z" fill="#040404"/>
<path d="M59.8774 75.2445C60.515 73.9142 60.8798 72.4578 61.6449 70.8614C62.0275 70.0632 62.2825 69.531 63.2105 68.9848C63.338 68.7187 63.7383 68.5786 64.011 68.7046C64.2837 68.8306 64.1562 69.0966 64.0287 69.3627C62.5906 70.9733 62.0982 72.6957 61.4783 74.6841C61.2233 75.2163 60.9683 75.7484 60.568 75.8885C60.1678 76.0286 60.1678 76.0286 59.895 75.9026C59.2221 75.9168 59.3496 75.6507 59.8774 75.2445Z" fill="#040404"/>
<path d="M54.9321 59.7131C54.5675 61.1698 53.803 62.7665 53.4384 64.2232C53.311 64.4893 53.3286 65.1476 52.6563 65.1617C52.1115 64.9096 52.6387 64.5034 52.4937 64.1112C52.8231 61.3379 53.8424 59.2089 54.9891 56.8138C55.1165 56.5477 55.3713 56.0155 55.7887 56.5337C56.3336 56.7858 56.2062 57.0519 55.9514 57.5841C55.6965 58.1164 55.3143 58.9148 54.9321 59.7131Z" fill="#040404"/>
<path d="M66.1316 78.5847C65.6211 79.6488 65.1107 80.7129 64.6002 81.777C64.4726 82.043 64.2173 82.5751 63.6713 82.3233C63.1253 82.0715 63.6536 81.6653 63.7812 81.3993C64.4015 79.4112 65.1494 77.1571 66.5888 75.5467C66.7164 75.2807 67.0992 74.4826 67.5176 75.0005C68.0636 75.2523 67.5354 75.6584 67.2801 76.1905C66.8973 76.9886 66.5144 77.7866 66.1316 78.5847Z" fill="#040404"/>
<path d="M63.7866 78.7495C63.6595 79.0158 63.4054 79.5483 62.8623 79.2958C62.5908 79.1695 62.8449 78.6369 62.7005 78.2444C63.3185 76.254 64.0636 73.9974 64.4101 71.8808C64.6643 71.3482 64.7914 71.0819 65.3344 71.3345C65.8775 71.587 65.3518 71.9933 65.4962 72.3859C65.1497 74.5025 64.4046 76.7591 63.7866 78.7495Z" fill="#040404"/>
<path d="M57.5739 67.8688C57.3193 68.4012 57.192 68.6674 56.92 68.5412C56.6479 68.4151 56.3758 68.2889 56.5031 68.0228C56.8499 65.9072 57.4688 63.9177 58.4871 61.7882C58.6143 61.522 59.141 61.1158 59.413 61.2419C59.9572 61.4942 59.4305 61.9004 59.3033 62.1666C58.6844 64.1561 58.0655 66.1455 57.5739 67.8688Z" fill="#040404"/>
<path d="M46.3247 47.0156C45.8151 48.0801 45.178 49.4107 45.2132 50.7273C45.0858 50.9934 45.2308 51.3856 44.831 51.5256C44.4312 51.6657 44.4136 51.0074 44.541 50.7413C44.6156 48.5003 45.5074 46.6375 46.6717 44.9007C46.7991 44.6345 47.199 44.4945 47.4714 44.6205C47.7438 44.7466 47.6164 45.0127 47.489 45.2788C46.8343 45.9511 46.5795 46.4834 46.3247 47.0156Z" fill="#040404"/>
<path d="M55.837 66.0413C55.7099 66.3076 55.5829 66.5739 55.1843 66.7139C54.9129 66.5876 54.7684 66.195 54.7684 66.195C55.1149 64.0783 55.4614 61.9616 56.3508 60.0975C56.4779 59.8312 56.6049 59.5649 56.8764 59.6912C57.4193 59.9437 57.1652 60.4764 57.0382 60.7427C56.5299 61.8079 56.2931 62.9994 56.0564 64.1909C56.0737 64.8498 56.0911 65.5087 55.837 66.0413Z" fill="#040404"/>
<path d="M50.3968 54.8825C50.0145 55.6809 49.6321 56.4792 48.8498 57.4176C48.7223 57.6837 48.5949 57.9498 48.3224 57.8238C48.0498 57.6977 48.1773 57.4316 48.3047 57.1655C48.7969 55.4429 49.8341 53.9723 50.1988 52.5157C50.3263 52.2496 50.5988 52.3756 50.7263 52.1095C50.9988 52.2356 51.1439 52.6277 51.0165 52.8938C51.0341 53.552 50.3792 54.2243 50.3968 54.8825Z" fill="#040404"/>
<path d="M47.9113 49.1126C48.0386 48.8465 48.4381 48.7064 48.5655 48.4402L48.965 48.3002C49.2372 48.4263 49.1099 48.6924 49.1099 48.6924C48.4908 50.6817 47.7268 52.2786 47.1077 54.2679C46.9803 54.534 46.9803 54.534 46.5808 54.6741C46.3086 54.548 46.0363 54.4219 46.1637 54.1557C46.2735 53.2311 46.6555 52.4326 46.6379 51.7742C47.1473 50.7096 47.8015 50.0372 47.9113 49.1126Z" fill="#040404"/>
<path d="M39.9768 45.2571C40.3409 43.7997 40.8497 42.7348 41.4856 41.4036C41.6128 41.1374 41.8672 40.6049 42.2662 40.4649C42.6652 40.3249 42.6652 40.3248 42.937 40.451C43.2089 40.5773 43.0817 40.8435 42.9545 41.1097C42.3185 42.4409 41.5554 44.0383 41.1913 45.4957C40.5379 46.1682 40.2486 45.3833 39.9768 45.2571Z" fill="#040404"/>
<path d="M68.5382 81.7213C67.7564 82.6598 67.2469 83.7243 66.7374 84.7889C66.61 85.055 66.3552 85.5873 66.0829 85.4612C65.5383 85.2091 65.6657 84.9429 65.9204 84.4107C66.4299 83.3461 67.0668 82.0154 67.5763 80.9508C67.831 80.4186 68.0857 79.8863 68.6304 80.1384C69.32 80.7828 68.7929 81.189 68.5382 81.7213Z" fill="#040404"/>
<path d="M42.844 44.0299C43.2256 43.2312 43.48 42.6988 44.1335 42.0263C44.5325 41.8862 44.6597 41.62 44.8043 42.0124C45.0762 42.1386 44.949 42.4048 44.8218 42.6711C43.914 43.876 43.0061 45.081 43.1857 46.7907C43.0585 47.057 42.9313 47.3232 42.6594 47.197C42.2604 47.337 42.1158 46.9446 42.243 46.6784C41.9537 45.8935 42.4625 44.8286 42.844 44.0299Z" fill="#040404"/>
<path d="M52.4067 57.5011C52.0244 58.2993 51.7696 58.8315 51.5147 59.3636C51.3873 59.6297 51.2598 59.8958 50.9871 59.7697C50.7143 59.6435 50.8418 59.3774 50.9692 59.1114C51.2062 57.9209 51.8433 56.5906 52.4805 55.2602C52.6079 54.9941 52.7354 54.728 53.0081 54.8542C53.2809 54.9803 53.1534 55.2464 53.2988 55.6386C53.3167 56.2969 52.6616 56.9689 52.4067 57.5011Z" fill="#040404"/>
<path d="M65.4094 52.3394C66.1738 50.7426 66.6658 49.0198 67.5576 47.1569C67.685 46.8908 67.9398 46.3585 68.4846 46.6106C69.0293 46.8627 68.7745 47.395 68.6471 47.6611C68.0101 48.9918 67.6455 50.4484 66.6088 51.9192C66.354 52.4514 65.9542 52.5915 65.4094 52.3394Z" fill="#040404"/>
<path d="M69.1143 52.1475C68.8599 52.6799 68.4783 53.4786 68.2239 54.0111C68.0967 54.2773 67.9695 54.5435 67.4257 54.2911C67.1539 54.165 67.2811 53.8987 67.1364 53.5063C67.7724 52.1752 68.1366 50.7179 68.7726 49.3867C68.8998 49.1205 69.1542 48.5881 69.698 48.8404C69.9698 48.9666 69.9873 49.6253 69.8601 49.8915C69.7503 50.8164 69.4959 51.3488 69.1143 52.1475Z" fill="#040404"/>
<path d="M84.624 79.0226C84.4967 79.2887 84.3694 79.5549 84.2421 79.821C84.1148 80.0871 83.8602 80.6194 83.4426 80.1008C82.8978 79.8484 83.4248 79.4424 83.5521 79.1763C84.0614 78.1118 84.2982 76.921 84.6801 76.1227C84.9348 75.5904 85.1894 75.0582 85.4618 75.1844C86.0067 75.4368 85.752 75.969 85.4974 76.5013C85.1155 77.2997 84.7335 78.098 84.624 79.0226Z" fill="#040404"/>
<path d="M65.1874 44.6668C64.8069 45.4662 64.4265 46.2655 63.7752 46.9384C63.6484 47.2049 63.5216 47.4713 62.98 47.2184C62.7092 47.092 62.836 46.8255 62.692 46.4326C63.1992 45.3668 63.3088 44.441 63.8161 43.3752C64.0697 42.8423 64.4673 42.7023 64.7382 42.8288C65.2798 43.0817 65.0262 43.6146 64.7725 44.1475C65.3142 44.4004 65.1874 44.6668 65.1874 44.6668Z" fill="#040404"/>
<path d="M82.8259 84.7319C83.4634 83.4016 84.1009 82.0714 84.7385 80.7412C84.866 80.4752 84.9935 80.2091 85.2664 80.3352C85.5394 80.4613 85.6848 80.8534 85.5573 81.1194C84.9198 82.4497 84.4098 83.5138 83.4993 84.718C83.6448 85.1101 83.2264 84.5919 82.8259 84.7319Z" fill="#040404"/>
<path d="M76.5906 69.8887C76.9546 68.4311 77.4456 66.7072 77.8095 65.2495C77.9366 64.9832 78.0637 64.717 78.4624 64.5769C78.734 64.7032 78.8785 65.0957 78.7514 65.362C78.3875 66.8197 78.0236 68.2773 77.388 69.6087C77.4054 70.2675 76.8622 70.015 76.5906 69.8887Z" fill="#040404"/>
<path d="M76.0166 65.6632C75.8895 65.9294 75.7624 66.1957 75.3637 66.3357C75.2366 66.602 74.965 66.4758 74.965 66.4758C74.6934 66.3495 74.6934 66.3495 74.8205 66.0832C75.1844 64.6256 75.6929 63.5605 76.0568 62.1028C76.1839 61.8366 76.7097 61.4303 76.9813 61.5565C77.5245 61.809 76.9987 62.2153 76.8716 62.4816C76.6347 63.673 76.525 64.5981 76.0166 65.6632Z" fill="#040404"/>
<path d="M81.0096 68.7726C81.5512 69.0256 81.6952 69.4185 81.8391 69.8114C81.4759 71.2702 80.9687 72.336 80.8763 73.9213C80.7495 74.1877 80.8935 74.5806 80.2252 74.5942C79.9544 74.4677 79.8104 74.0748 79.9372 73.8083C79.7589 72.0966 80.5196 70.4979 81.0096 68.7726Z" fill="#040404"/>
<path d="M79.2698 66.2859C79.8114 66.5388 80.2262 67.0581 79.9726 67.591C79.7362 68.7833 79.3557 69.5826 79.1193 70.7749C78.9925 71.0414 78.8657 71.3078 78.5949 71.1813C78.0532 70.9284 78.4508 70.7884 78.3068 70.3955C78.5433 69.2033 78.9065 67.7446 79.2698 66.2859Z" fill="#040404"/>
<path d="M102.009 85.81C101.882 86.0761 101.899 86.7345 101.355 86.4824C100.81 86.2302 101.065 85.6979 101.192 85.4318C101.412 83.5827 102.176 81.9859 103.068 80.1228C103.195 79.8567 103.45 79.3244 103.994 79.5766C104.539 79.8287 104.012 80.2349 103.884 80.5011C103.393 82.224 102.901 83.947 102.009 85.81Z" fill="#040404"/>
<path d="M99.1504 78.8455C98.6243 79.2517 98.6591 80.5691 97.8439 80.1905C97.0286 79.8119 97.809 78.8731 98.0633 78.3406C98.572 77.2756 98.8089 76.0844 99.0458 74.8932C99.173 74.6269 99.3001 74.3607 99.4273 74.0944C99.5545 73.8282 99.9534 73.6882 100.225 73.8144C100.497 73.9406 100.37 74.2068 100.243 74.4731C100.006 75.6643 99.9134 77.248 99.1504 78.8455Z" fill="#040404"/>
<path d="M85.7199 61.1979C85.8122 59.6142 86.847 58.143 87.2111 56.6856C87.3383 56.4193 87.61 56.5455 87.61 56.5455C87.8818 56.6717 88.1535 56.7979 88.0264 57.0642C87.6623 58.5216 87.2982 59.979 86.3906 61.184C86.2634 61.4503 85.9917 61.3241 85.7199 61.1979Z" fill="#040404"/>
</g>
</svg>
