<svg width="148" height="142" viewBox="0 0 148 142" fill="none" xmlns="http://www.w3.org/2000/svg">
<g opacity="0.1">
<path d="M137.34 41.7255C140.428 44.6666 141.916 48.5811 142.456 52.5907C142.846 54.3248 142.289 56.1542 141.229 57.3689C137.771 61.9279 133.81 65.8723 128.176 67.7681C125.257 68.8001 123.174 70.8565 120.887 73.0812C115.7 78.0354 110.717 82.8214 105.194 87.366C97.2547 93.5572 89.1477 99.5435 81.2453 105.362C77.1918 108.355 73.845 111.794 69.7915 114.787C65.9426 117.612 61.7589 120.027 57.2403 122.033C54.6929 123.101 52.443 124.953 50.3977 126.636C48.185 128.114 46.3071 130.002 44.4292 131.89C40.8778 135.498 37.0655 134.182 34.2571 130.326C31.7834 126.88 31.2436 122.87 33.0096 118.333C37.1181 109.128 41.394 100.127 45.3351 90.7172C47.0268 86.9267 48.8859 83.3412 50.2057 79.5142C51.3581 75.4823 53.9611 71.9698 55.6528 68.1794C57.3445 64.3889 59.5755 60.8399 59.8539 56.1569C59.9836 52.9667 60.4482 50.1861 58.8857 47.018C58.0859 45.6206 58.6436 43.7912 59.1641 42.3351C60.8929 38.1715 63.998 35.2735 67.9772 33.0267C72.57 30.2749 77.5536 29.2572 82.444 27.2884C84.0059 26.6882 85.6981 26.666 87.1858 26.8122C89.4173 27.0314 91.686 26.8775 93.9547 26.7235C101.504 26.3348 108.961 24.9949 116.307 28.5428C120.249 30.4374 124.675 31.2491 128.172 33.8535C131.668 36.458 135.239 38.316 137.34 41.7255ZM73.1508 64.0577C73.188 63.6846 73.2251 63.3114 72.8532 63.2748C72.4813 63.2383 72.8161 63.648 72.7789 64.0212C71.5146 65.4043 71.1427 65.3677 70.5474 63.802C69.915 62.6093 69.6545 61.4533 71.0862 60.2751C70.3052 60.5752 68.929 59.3095 69.1152 61.2119C69.2083 62.1631 69.9709 63.9337 69.19 64.2338C67.2561 64.7975 68.8369 65.8948 68.3907 66.6046C67.7399 67.4828 66.9589 67.7829 65.8803 67.3001C65.341 67.0587 65.0434 66.2758 64.5041 66.0344C63.5933 69.5247 65.0439 70.0441 70.6969 69.8458C70.3622 69.4361 70.1948 69.2313 69.86 68.8215C69.5252 68.4118 69.395 67.8338 69.804 67.4972C70.2131 67.1605 70.585 67.1971 71.1243 67.4385C73.2073 69.1504 72.8165 67.4163 72.928 66.2968C73.0023 65.5504 73.4485 64.8406 73.1508 64.0577ZM128.38 63.8315C126.725 63.4805 125.795 61.505 123.898 61.6954C123.322 61.8272 123.229 60.876 123.266 60.5028C123.489 58.2638 124.455 56.0978 126.464 54.7878C127.691 53.7779 128.918 52.768 129.978 51.5533C132.953 48.0773 135.258 47.5502 138.327 48.7937C138.029 48.0108 137.732 47.2279 137.434 46.445C137.267 46.2402 137.099 46.0353 136.932 45.8305C132.078 39.8896 126.331 35.3684 119.078 32.7717C117.256 32.2158 115.266 31.4551 113.648 30.7309C110.784 29.319 107.641 28.8219 104.796 29.1076C100.631 29.452 96.5398 29.0501 92.5046 29.9725C90.9798 30.1995 89.2876 30.2217 87.6325 29.8707C86.7213 29.5927 85.5684 29.8563 84.5829 30.3247C79.7296 31.9204 74.7089 33.3112 70.1161 36.063C67.1225 37.8414 64.8355 40.0661 63.3854 43.3151C62.6975 44.5664 62.7535 45.8907 63.3487 47.4565C64.409 50.01 64.8929 52.6953 64.0564 55.4393C63.7405 56.7272 63.629 57.8467 63.685 59.1711C64.6334 59.0759 65.4143 58.7758 65.8605 58.0659C66.5113 57.1878 66.9575 56.478 68.1104 56.2145C70.6579 55.1459 73.038 53.8724 75.7157 53.3818C78.7653 52.9278 82.224 52.1371 85.2925 53.3807C87.1149 53.9365 89.0676 55.0704 91.0575 55.8312C96.0786 58.2086 98.1804 61.6181 97.1582 66.228C96.7308 68.6353 95.4293 70.3916 93.9233 72.3162C91.7666 75.1189 89.3122 77.1387 86.6533 79.3268C81.9491 83.1981 76.8913 84.9621 70.8475 83.4263C65.7149 82.1684 62.6276 79.2273 61.8645 73.6884C61.6783 71.7859 61.083 70.2202 60.562 67.908C56.6764 74.8744 53.9066 81.9503 50.5974 88.7848C51.3784 88.4847 51.5829 88.3164 51.8246 87.7749C52.8844 86.5602 53.7768 85.1405 54.8366 83.9258C55.4873 83.0477 56.7145 82.0378 57.756 82.8937C58.9649 83.9546 60.1178 83.691 61.4752 83.2591C62.6281 82.9956 64.1158 83.1417 65.6034 83.2879C68.0023 83.712 70.0853 85.4239 69.8624 87.663C69.6955 91.2264 68.2826 94.1022 65.5866 96.6635C63.5041 98.7198 60.6219 99.3787 57.6094 99.4596C56.8655 99.3865 56.0845 99.6866 55.3036 99.9867C53.7416 100.587 52.663 100.104 51.6587 98.8749C50.1522 97.0312 49.4267 94.8874 49.4821 92.4435C49.6867 92.2752 49.7238 91.902 49.3519 91.8655C48.98 91.8289 48.9428 92.2021 48.9057 92.5753C47.5299 95.0779 46.5261 97.617 45.1503 100.12C43.3283 103.332 42.7524 107.232 40.7259 110.613C40.038 111.864 38.5691 113.416 38.7925 114.945C38.9787 116.847 37.956 117.689 37.2681 118.94C36.7476 120.396 36.0598 121.648 36.6179 123.586C37.0458 124.947 36.5253 126.404 37.3251 127.801C38.5899 130.186 40.0404 130.706 42.0486 129.396C42.6622 128.891 43.2758 128.386 43.8894 127.881C45.7301 126.366 47.4407 124.273 49.4117 123.336C54.1347 121.162 57.5558 116.977 61.4419 113.779C62.8736 112.6 63.9706 111.012 65.4394 109.461C63.4125 109.073 62.2779 107.266 60.2138 107.252C59.4699 107.179 58.9678 106.564 58.8747 105.613C58.7444 105.035 59.1906 104.325 59.7671 104.193C61.4593 104.171 62.1472 102.92 63.3372 102.283C65.1408 101.142 66.7959 101.493 68.135 103.131C68.9719 104.156 69.0279 105.48 69.0839 106.804C72.3935 103.738 76.503 102.069 79.8126 99.0032C79.143 98.1838 78.3992 98.1107 77.5439 99.1571C76.6887 100.204 75.7403 100.299 75.926 98.4329C75.9632 98.0598 75.7958 97.8549 75.8329 97.4817C74.1402 93.7356 75.9993 90.15 79.9973 89.6008C81.5222 89.3737 82.6751 89.1102 84.1999 88.8832C85.3528 88.6196 86.3012 88.5244 87.3798 89.0072C88.6258 89.6948 88.5143 90.8144 88.5703 92.1387C91.2664 89.5774 94.1298 87.221 96.8258 84.6597C95.3382 84.5135 94.4269 84.2356 93.3855 83.3796C91.9721 82.4871 92.2138 81.9456 93.1062 80.526C95.9137 76.8452 100.153 75.7544 104.058 74.2539C104.635 74.1222 105.379 74.1953 105.509 74.7733C105.974 75.761 106.383 75.4244 106.996 74.9194C107.815 74.2462 108.502 72.9949 109.488 72.5265C112.482 70.748 114.638 67.9453 117.093 65.9255C118.729 64.579 118.543 62.6766 116.795 61.3744C116.255 61.133 115.549 60.6867 115.623 59.9404C115.567 58.616 114.321 57.9283 113.242 57.4455C106.771 54.5488 99.8157 52.735 92.6189 51.4627C84.8829 49.949 76.9983 49.928 69.1326 51.6046C68.3516 51.9047 67.5334 52.578 66.901 51.3853C66.436 50.3976 67.5889 50.134 68.2025 49.6291C68.6116 49.2925 69.188 49.1607 69.5971 48.824C72.1074 48.1286 74.7852 47.638 77.2583 47.3158C82.744 46.9127 87.9509 47.4242 93.4925 48.3455C100.317 49.5813 106.733 51.1537 113.037 53.8456C116.645 55.3305 119.844 57.152 121.332 61.0665C121.797 62.0542 122.969 63.4882 121.742 64.4981C118.674 67.0229 116.443 70.572 113.207 72.8919C108.707 76.5948 104.375 80.5027 100.006 84.7837C94.8182 89.738 89.8351 94.5239 84.1454 98.8637C82.5091 100.21 80.6684 101.725 79.0321 103.072C83.0484 100.452 86.8974 97.6267 90.5418 94.9702C96.1944 91.0037 101.14 86.5909 106.626 82.4195C111.125 78.7165 115.123 74.3989 119.66 70.3228C122.021 67.3518 125.015 65.5733 128.38 63.8315C128.715 64.2412 128.919 64.0729 129.124 63.9046C128.752 63.868 128.38 63.8315 128.38 63.8315ZM87.7498 73.9706C90.5761 71.9873 92.3237 69.5212 93.5321 66.8138C94.7033 64.4795 94.2566 61.421 92.5085 60.1188C88.1381 56.8632 83.1169 54.4858 77.4267 55.0572C73.6332 55.4382 67.9618 57.7072 66.2141 60.1732C67.683 58.6218 69.5797 58.4313 71.4765 58.2409C72.7968 58.1822 73.3361 58.4236 73.8011 59.4113C75.8286 63.5672 75.0481 67.6355 73.1518 71.5943C73.6911 71.8357 74.4349 71.9088 74.9743 72.1502C75.8855 72.4281 76.555 73.2475 76.2762 74.1622C75.5883 75.4135 76.2207 76.6061 76.3138 77.5573C76.5743 78.7134 76.6674 79.6646 75.8122 80.711C78.3968 79.2693 81.6138 79.0201 83.9379 76.4223C81.595 77.3225 79.5309 77.3082 78.2289 75.2961C76.5922 72.8744 78.842 71.0229 80.0133 68.6886C79.0277 69.157 77.8189 68.0962 77.131 69.3475C76.8893 69.889 76.9824 70.8402 76.0712 70.5622C75.16 70.2843 75.2343 69.538 75.3085 68.7916C75.4012 65.9745 75.6612 63.3623 76.1257 60.5818C76.6274 57.4281 78.9703 56.5278 81.6669 57.7348C82.7455 58.2175 83.4522 58.6638 84.5308 59.1466C88.5105 60.6681 88.8641 62.7753 85.8892 66.2513C85.443 66.9611 83.9182 67.1881 84.2158 67.971C84.8482 69.1636 85.908 67.9488 86.6518 68.0219C87.6002 67.9267 88.1395 68.1681 88.6417 68.7827C89.1438 69.3972 89.0696 70.1436 88.6234 70.8534C88.8838 72.0095 88.4376 72.7193 87.7498 73.9706ZM55.5621 86.0696C54.2047 86.5015 54.3909 88.4039 53.3682 89.2455C52.141 90.2554 51.8251 91.5432 51.5091 92.8311C51.156 94.4921 51.9187 96.2627 52.923 97.4919C53.7599 98.5161 54.9871 97.5062 55.9355 97.411C57.2558 97.3523 58.2413 96.8839 59.5616 96.8252C60.5099 96.73 61.2909 96.4299 62.0719 96.1298C64.6565 94.688 65.6604 92.1488 66.8316 89.8146C67.7983 87.6486 66.9985 86.2511 64.5996 85.827C62.9445 85.476 61.4197 85.703 60.0623 86.1349C59.1139 86.2301 58.1655 86.3254 57.2915 85.6743C56.6219 84.8548 56.0455 84.9866 55.5621 86.0696ZM130.109 59.6679C131.28 57.3336 134.367 56.5064 135.575 53.7989C135.854 52.8842 136.3 52.1744 135.798 51.5599C135.296 50.9453 134.645 51.8234 133.864 52.1235C131.652 53.6018 129.941 55.6947 128.398 57.9925C127.747 58.8706 127.71 59.2438 128.212 59.8583C128.882 60.6778 129.328 59.968 130.109 59.6679ZM76.2415 93.3768C77.3201 93.8596 78.3987 94.3424 79.2728 94.9935C79.9795 95.4398 80.3514 95.4763 80.965 94.9714C82.3967 93.7931 83.6611 92.4101 84.5906 90.6173C81.8758 91.481 78.4354 90.201 76.2415 93.3768ZM67.5368 78.956C65.7699 75.9562 65.807 75.583 69.5629 71.8069C67.1268 71.756 64.821 72.2831 63.1471 70.2346C63.7241 73.8711 63.7617 77.2662 67.5368 78.956ZM64.3801 114.444C68.9358 112.065 72.2826 108.626 76.0013 105.223C71.4828 107.229 67.9315 110.836 64.3801 114.444ZM79.0268 61.6204C78.8222 61.7888 78.8222 61.7888 78.6177 61.9571C78.3389 62.8717 77.9858 64.5328 78.3577 64.5693C79.4363 65.0521 80.5149 65.5349 81.389 66.186C82.2631 66.8371 83.4903 65.8272 84.3456 64.7808C81.8724 65.103 79.678 64.5106 79.0268 61.6204ZM83.7315 61.5174C79.7889 59.6228 79.7889 59.6228 78.9337 60.6692C81.0349 60.3104 81.5742 60.5518 81.6862 63.2006C81.965 62.2859 82.5786 61.781 83.7315 61.5174ZM69.3217 76.1167C70.4374 76.2263 70.8653 77.5873 71.9251 76.3725C72.3713 75.6627 72.0737 74.8798 71.9063 74.6749C70.6231 74.3605 70.1398 75.4434 69.3217 76.1167ZM136.487 57.8451C134.274 59.3234 133.14 61.2846 131.504 62.6311C133.475 61.6943 135.316 60.1794 136.487 57.8451ZM94.9658 80.7087C96.4906 80.4817 96.4906 80.4817 97.9966 78.5571C96.4718 78.7841 95.9884 79.8671 94.9658 80.7087ZM62.5939 105.978C63.877 106.293 64.3792 106.908 65.0299 106.029C65.439 105.693 65.3087 105.115 64.7694 104.873C64.0627 104.427 63.7839 105.342 62.5939 105.978ZM84.2351 73.4369C82.9148 73.4956 82.6172 72.7127 82.0779 72.4713C81.6688 72.8079 81.2226 73.5177 81.5574 73.9274C82.2641 74.3737 82.8777 73.8687 84.2351 73.4369Z" fill="#060606"/>
<path d="M72.7337 64.0368C72.9389 63.8687 72.4353 63.2554 72.8083 63.2918C73.1813 63.3282 73.144 63.7007 73.1067 64.0732C72.9016 64.2412 72.7337 64.0368 72.7337 64.0368Z" fill="#FBFBFB"/>
<path d="M48.4196 92.7679C48.4569 92.3949 48.4941 92.022 48.8664 92.0585C49.2387 92.0949 49.2014 92.4678 48.9967 92.6361C48.7919 92.8043 48.7919 92.8043 48.4196 92.7679Z" fill="#FBFBFB"/>
<path d="M128.413 63.6261C128.786 63.6629 128.786 63.6629 129.158 63.6997C128.953 63.8677 128.749 64.0358 128.413 63.6261C128.208 63.7942 128.413 63.6261 128.413 63.6261Z" fill="#FBFBFB"/>
<path d="M102.312 59.4612C104.638 56.8651 108.026 56.8208 111.711 57.5588C112.995 57.8731 113.907 58.1508 114.131 59.679C114.559 61.039 113.908 61.9166 112.884 62.7576C110.837 64.4396 108.492 65.3393 105.756 64.5061C104.676 64.0237 103.597 63.5412 102.406 64.1775C100.842 64.7773 100.414 63.4173 99.9113 62.8032C99.2412 61.9843 100.228 61.5162 100.842 61.0116C100.916 60.2658 101.493 60.1341 102.312 59.4612ZM104.434 60.7991C106.63 61.3911 109.125 62.7654 111.078 60.1328C108.51 59.5043 106.276 59.2852 104.434 60.7991Z" fill="#060606"/>
<path d="M48.7829 107.269C49.1924 106.933 49.6391 106.224 50.3465 106.669C51.2587 106.947 50.9796 107.861 50.9424 108.234C50.9613 109.93 51.3524 111.663 51.3713 113.359C51.2786 116.174 49.2312 117.856 46.625 117.6C44.7634 117.418 43.758 116.19 44.1115 114.53C44.9488 111.788 46.7355 108.951 48.7829 107.269ZM48.7463 111.407C48.951 111.239 48.7835 111.035 48.7835 111.035C48.7835 111.035 48.5787 111.203 48.374 111.371C47.6854 112.621 47.2015 113.703 46.8852 114.99C48.9887 114.632 49.2306 114.091 48.7463 111.407Z" fill="#060606"/>
<path d="M48.3661 111.371C48.5705 111.203 48.7749 111.035 48.7749 111.035C49.1467 111.071 48.9423 111.24 48.7379 111.408C48.5705 111.203 48.3661 111.371 48.3661 111.371Z" fill="#FBFBFB"/>
</g>
</svg>
