<svg width="52" height="71" viewBox="0 0 52 71" fill="none" xmlns="http://www.w3.org/2000/svg">
<path d="M27.8119 21.5187C25.3118 20.0917 23.6079 18.5031 22.0637 17.0203C20.6791 15.6433 19.7714 13.8932 19.2888 12.195C18.485 9.5949 19.7005 7.41409 21.714 5.76216C22.8795 4.69678 24.3642 3.84295 26.1162 3.62568C27.4432 3.35648 28.5567 2.71611 29.6702 2.07574C33.0646 0.420011 36.5167 0.410503 39.709 2.52607C43.061 4.74741 46.0418 7.18221 48.2822 10.7343C51.1091 15.1346 51.8128 19.9656 51.7203 24.958C51.6741 27.4543 51.7875 30.0563 51.0508 32.5545C50.0507 35.7969 49.4756 39.0912 46.7735 41.4354C45.9254 42.022 46.0349 43.2432 45.6657 44.147C44.1905 48.4529 41.0634 50.7452 37.1382 52.5086C36.5016 52.7759 36.29 53.0952 36.3977 53.6259C36.5592 54.4221 36.4015 55.0068 35.8188 55.5395C31.9512 58.9491 27.7106 61.8818 22.3488 62.6932C21.2872 62.9085 20.3314 62.9643 19.3218 62.7546C17.8871 62.493 17.1986 63.1853 16.2447 63.9315C13.9676 66.3276 11.4233 68.0872 8.55964 69.6353C7.81729 70.0622 7.0211 70.2237 6.27685 69.9602C3.51331 69.2774 2.01339 64.608 3.75968 62.3195C4.28857 61.5214 4.50013 61.2022 3.54243 60.5675C2.90395 60.1444 2.31742 59.2962 1.8905 58.5539C0.396297 55.9557 0.602152 53.5652 2.5619 51.6479C4.78704 49.6767 8.07948 49.5614 10.2622 51.4674C11.7526 52.6848 13.3488 53.7425 14.7853 54.6945C15.743 55.3292 16.4335 55.3273 17.1739 54.21C19.1837 51.1772 21.0339 48.0387 23.2571 45.3772C24.1572 44.3656 24.7918 43.4079 26.065 42.8733C27.7093 42.1252 28.5555 40.8483 29.3479 39.306C30.4038 37.0194 30.9808 34.4154 32.7809 32.3923C33.0983 31.9135 32.5098 30.375 32.1887 29.473C31.6003 27.9345 30.3753 26.6632 30.0522 25.0708C29.9407 23.1592 29.035 22.0995 27.8119 21.5187ZM49.905 21.4579C49.3108 17.8481 48.7705 14.5037 46.7975 11.5882C45.2513 9.41496 43.2821 7.88022 41.4186 6.18587C37.9032 2.47793 34.0242 1.74509 29.5701 4.30659C28.297 4.84118 27.0239 5.37578 25.6969 5.64498C23.8391 6.02186 22.3025 7.3007 21.2985 9.16228C20.0311 11.7681 21.5234 13.6759 23.0157 15.5837C24.508 17.4915 26.583 18.8667 28.6581 20.2418C29.4562 20.7707 29.8273 20.5572 30.3562 19.7591C31.0948 17.9514 32.5256 16.8321 34.3834 16.4553C37.6739 15.6496 40.6509 16.7035 43.6799 17.3325C46.23 17.6441 48.0934 19.3385 49.905 21.4579ZM45.3856 19.6115C42.726 18.0787 39.2201 17.8228 35.768 17.8323C33.8564 17.9438 32.2659 18.9572 31.5812 21.0303C31.2139 22.6246 31.4831 23.9516 32.1773 25.3305C33.2446 27.1864 34.4176 28.8827 34.3176 31.1135C34.3195 31.8039 34.5849 31.7501 35.1695 31.9078C39.8966 32.0541 42.7735 35.3389 45.3851 38.6776C46.1312 39.6315 46.3428 39.3123 46.7659 38.6738C47.0832 38.1949 47.4005 37.7161 47.5583 37.1314C48.6141 34.8449 49.0854 32.4006 49.5566 29.9562C50.1299 25.9715 49.4299 22.5213 45.3856 19.6115ZM29.1978 42.6522C31.542 45.3543 34.3632 47.6834 36.0709 50.6527C38.0325 49.4258 40.5269 48.7817 42.1674 46.6528C44.231 43.8854 46.1331 40.3219 42.6196 37.3044C40.81 35.8754 39.4773 34.0734 37.033 33.6021C35.4387 33.2348 34.0598 33.929 33.4789 35.1521C32.6346 37.1194 31.6307 38.981 30.7864 40.9484C30.0979 41.6407 29.8344 42.3849 29.1978 42.6522ZM19.3161 60.6834C20.5373 60.5738 21.4931 60.518 22.4489 60.4623C26.3241 59.8143 29.505 57.7874 32.6321 55.4951C35.0707 53.8951 35.2785 52.1951 33.4131 49.8103C32.1343 48.2737 30.8554 46.7371 29.3112 45.2543C28.0862 43.983 26.9707 43.933 25.5937 45.3176C22.8935 48.3523 20.9376 51.6504 18.8759 55.1081C18.5585 55.587 17.4469 56.9178 19.3066 57.2313C20.3162 57.441 20.4777 58.2372 20.1085 59.141C20.1104 59.8314 19.7392 60.0449 19.3161 60.6834ZM10.2502 66.391C9.02518 65.1198 9.02518 65.1197 11.7792 62.3505C11.0888 62.3524 10.2926 62.5139 9.60221 62.5158C8.9118 62.5177 8.32716 62.36 8.21948 61.8292C8.1118 61.2984 8.58876 60.9253 9.06571 60.5523C10.1792 59.9119 11.0274 59.3254 12.2467 58.5254C11.0236 57.9445 9.90623 57.2041 8.84274 56.729C8.36389 56.4117 7.88503 56.0944 8.30815 55.4559C8.57164 54.7117 9.15628 54.8694 9.90052 55.1329C10.4852 55.2906 11.0179 55.8733 11.6025 56.031C12.8256 56.6119 13.8891 57.0869 15.7468 56.71C12.8756 55.4964 11.0121 53.8021 8.93711 52.427C7.0217 51.1576 4.42157 51.9614 3.41763 53.823C2.51947 55.525 3.26943 57.8597 5.6637 59.4464C7.25988 60.5041 7.36756 61.0349 6.15016 62.5253C4.7212 64.335 4.67116 65.4504 6.26924 67.1986C6.96156 67.8871 7.65387 68.5756 8.71355 67.6698C8.87127 67.0852 9.50783 66.8179 10.2502 66.391Z" fill="#0A0A0A"/>
</svg>
