<svg width="84" height="94" viewBox="0 0 84 94" fill="none" xmlns="http://www.w3.org/2000/svg">
<path opacity="0.1" d="M4.64391 91.5742C-0.260739 88.4375 -0.770901 85.6624 3.4827 81.6751C8.19859 77.1316 13.4698 73.0498 17.6304 68.0447C25.9516 58.0346 32.6534 47.1486 35.2835 33.8182C36.9904 24.4224 40.5943 16.1334 49.0564 10.4722C53.1719 7.78066 57.3803 6.10683 62.3766 7.43891C63.1631 7.62246 64.6429 6.97183 65.614 6.36846C70.1918 3.12079 75.0006 -0.404938 81.2457 0.554571C82.0786 1.24698 82.6804 2.21744 83.7445 2.63179C83.0511 3.46597 82.4041 4.809 81.433 5.41237C78.7509 6.94444 76.0223 7.96764 73.5714 9.22165C72.8315 9.54696 71.9999 11.6769 72.5552 12.1385C75.5642 16.9908 72.5128 20.0967 70.572 24.1259C67.7531 29.7761 65.4431 35.379 62.6242 41.0292C57.4023 51.2647 52.7821 62.4705 43.2108 70.0309C36.0905 76.3372 28.739 82.9216 20.8787 89.5532C15.8852 93.8658 9.54855 94.711 4.64391 91.5742ZM59.8819 13.8288C57.8467 14.0178 55.6269 14.9937 53.7764 14.3959C51.4171 13.8452 50.446 14.4486 49.0126 15.6081C42.2616 20.3406 40.6463 27.9317 38.9845 35.014C35.2001 52.557 25.9557 66.5017 13.1949 78.4637C10.5593 80.5046 8.20134 82.7764 5.56574 84.8173C4.17888 86.4856 4.04074 87.7814 6.40006 88.3321C8.75937 88.8827 11.9051 89.6169 14.1714 89.1498C16.6689 88.4047 19.0733 86.6418 20.969 84.9262C29.985 76.9043 39.5563 69.3439 47.7393 60.6296C54.7667 53.3056 58.7864 43.9516 61.742 34.1832C62.8964 29.9706 66.41 26.3085 64.9274 21.3144C60.5329 20.9528 59.7 20.2604 59.8819 13.8288Z" fill="#020202"/>
</svg>
